<svg xmlns="http://www.w3.org/2000/svg" width="53.567" height="53.567" viewBox="0 0 53.567 53.567">
  <path id="analytics" d="M48.079,5.489A18.741,18.741,0,0,0,20.513,30.837l-3.789,3.789a5.171,5.171,0,0,0-6.018.938L1.512,44.756a5.163,5.163,0,0,0,7.3,7.3l9.193-9.194a5.171,5.171,0,0,0,.938-6.02l3.787-3.787A18.741,18.741,0,0,0,53.568,18.741,18.618,18.618,0,0,0,48.079,5.489ZM28.445,25.437a1.569,1.569,0,1,1-3.139,0V20.414a1.569,1.569,0,1,1,3.139,0Zm5.231,0a1.569,1.569,0,1,1-3.139,0V15.183a1.569,1.569,0,1,1,3.139,0Zm5.231,0a1.569,1.569,0,1,1-3.139,0V17.275a1.569,1.569,0,0,1,3.139,0Zm5.231,0a1.569,1.569,0,1,1-3.139,0V12.043a1.569,1.569,0,1,1,3.139,0Zm0,0" transform="translate(-0.001)" fill="#fab371"/>
</svg>
