<svg xmlns="http://www.w3.org/2000/svg" width="30" height="27.5" viewBox="0 0 30 27.5">
  <g id="business-partnership" transform="translate(0 -1)">
    <path id="Path_6660" data-name="Path 6660" d="M.614,11A.625.625,0,0,0,0,11.628v11.56a.313.313,0,0,0,.313.313H3.277a.624.624,0,0,0,.6-.454L6.645,13.3a1.25,1.25,0,0,0-.775-1.516A14.617,14.617,0,0,0,.614,11Z" transform="translate(0 2.5)" fill="#4cbeec"/>
    <path id="Path_6661" data-name="Path 6661" d="M26.312,17.42c-2.5,0-7.5,3.164-10,3.164S11,18.67,11,18.67a38.94,38.94,0,0,0,5.313.625c1.945,0,2.5-.664,2.5-1.562,0-2.187-3.715-2.528-5.595-2.814-1.845-1.028-2.8-1.84-5.86-2.1a3.013,3.013,0,0,1-.1.532L4.751,22.2c2.844,1.294,7.741,3.342,10.311,3.342,3.75,0,13.75-5,13.75-6.25S27.562,17.42,26.312,17.42Z" transform="translate(1.188 2.955)" fill="#4cbeec"/>
    <path id="Path_6662" data-name="Path 6662" d="M24.725,15.5a.625.625,0,0,0,.614-.625V3.313A.313.313,0,0,0,25.026,3H22.061a.624.624,0,0,0-.6.454L18.694,13.2a1.25,1.25,0,0,0,.775,1.516A14.617,14.617,0,0,0,24.725,15.5Z" transform="translate(4.661 0.5)" fill="#4cbeec"/>
    <path id="Path_6663" data-name="Path 6663" d="M2.5,9.125c2.5,0,7.5-3.164,10-3.164s5.313,1.914,5.313,1.914A38.94,38.94,0,0,0,12.5,7.25c-1.945,0-2.5.664-2.5,1.563,0,2.188,3.715,2.528,5.595,2.814,1.845,1.028,2.8,1.84,5.86,2.1a3.023,3.023,0,0,1,.1-.531l2.511-8.85C21.217,3.049,16.32,1,13.75,1,10,1,0,6,0,7.25S1.25,9.125,2.5,9.125Z" transform="translate(0 0)" fill="#4cbeec"/>
  </g>
</svg>
