<svg xmlns="http://www.w3.org/2000/svg" width="39.251" height="34.5" viewBox="0 0 39.251 34.5">
  <g id="calendar_3_" data-name="calendar (3)" transform="translate(0 -30.988)">
    <path id="Path_6762" data-name="Path 6762" d="M1.148,169.388H31.2a1.152,1.152,0,0,0,.737-.266c.289-.242,6.873-5.906,7.275-18.134H6.936c-.4,11.1-6.464,16.316-6.527,16.368a1.151,1.151,0,0,0,.739,2.032Z" transform="translate(0 -110.8)" fill="#4cbeec"/>
    <path id="Path_6763" data-name="Path 6763" d="M122.1,33.288h-5.75v-1.15a1.15,1.15,0,1,0-2.3,0v1.15h-5.827v-1.15a1.15,1.15,0,1,0-2.3,0v1.15h-5.75v-1.15a1.15,1.15,0,1,0-2.3,0v1.15h-5.75a1.139,1.139,0,0,0-1.15,1.15v3.45h32.277v-3.45A1.139,1.139,0,0,0,122.1,33.288Z" transform="translate(-84.001 0)" fill="#4cbeec"/>
    <path id="Path_6764" data-name="Path 6764" d="M117.417,306.481a3.461,3.461,0,0,1-2.214.8H90.977v3.45a1.149,1.149,0,0,0,1.15,1.15H122.1a1.149,1.149,0,0,0,1.15-1.15V297.843A22.793,22.793,0,0,1,117.417,306.481Z" transform="translate(-84.002 -246.396)" fill="#4cbeec"/>
  </g>
</svg>
