<svg id="discussion" xmlns="http://www.w3.org/2000/svg" width="51.526" height="51.526" viewBox="0 0 51.526 51.526">
  <path id="Path_6768" data-name="Path 6768" d="M9.661,12.271V2.61A5.716,5.716,0,0,1,9.876,1H3.757A3.775,3.775,0,0,0,0,4.757v9.661a3.775,3.775,0,0,0,3.757,3.757h.794L7.3,21.825a1.657,1.657,0,0,0,1.224.644h.064a1.528,1.528,0,0,0,1.2-.558l3.22-3.671A7.054,7.054,0,0,1,9.661,12.271Z" transform="translate(0 1.147)" fill="#21bf79"/>
  <path id="Path_6769" data-name="Path 6769" d="M27.193,1H21.075a5.716,5.716,0,0,1,.215,1.61v9.661A7.054,7.054,0,0,1,17.94,18.24l3.22,3.671a1.528,1.528,0,0,0,1.2.558h.064a1.657,1.657,0,0,0,1.224-.644l2.727-3.65h.816a3.775,3.775,0,0,0,3.757-3.757V4.757A3.775,3.775,0,0,0,27.193,1Z" transform="translate(20.576 1.147)" fill="#21bf79"/>
  <path id="Path_6770" data-name="Path 6770" d="M18.882,21.469h-.06a1.616,1.616,0,0,1-1.228-.644l-2.737-3.65h-5.1A3.761,3.761,0,0,1,6,13.418V3.757A3.761,3.761,0,0,1,9.757,0H28.006a3.761,3.761,0,0,1,3.757,3.757v9.661a3.761,3.761,0,0,1-3.757,3.757H23.369L20.092,20.92a1.606,1.606,0,0,1-1.211.55Z" transform="translate(6.882)" fill="#21bf79"/>
  <circle id="Ellipse_392" data-name="Ellipse 392" cx="4.5" cy="4.5" r="4.5" transform="translate(3.763 27.526)" fill="#21bf79"/>
  <path id="Path_6771" data-name="Path 6771" d="M14.32,18.859a9,9,0,0,0-3.585,7.192v.537H1.61A1.622,1.622,0,0,1,0,24.978V23.9A5.9,5.9,0,0,1,5.9,18h5.367A5.866,5.866,0,0,1,14.32,18.859Z" transform="translate(0 20.645)" fill="#21bf79"/>
  <circle id="Ellipse_393" data-name="Ellipse 393" cx="4.5" cy="4.5" r="4.5" transform="translate(38.763 27.526)" fill="#21bf79"/>
  <path id="Path_6772" data-name="Path 6772" d="M31.65,23.9v1.073a1.622,1.622,0,0,1-1.61,1.61H20.915v-.537a9,9,0,0,0-3.585-7.192A5.866,5.866,0,0,1,20.379,18h5.367A5.9,5.9,0,0,1,31.65,23.9Z" transform="translate(19.876 20.645)" fill="#21bf79"/>
  <circle id="Ellipse_394" data-name="Ellipse 394" cx="6.441" cy="6.441" r="6.441" transform="translate(19.322 24.69)" fill="#21bf79"/>
  <path id="Path_6773" data-name="Path 6773" d="M24.212,19H12.4a5.909,5.909,0,0,0-5.9,5.9v3.22a1.611,1.611,0,0,0,1.61,1.61h20.4a1.611,1.611,0,0,0,1.61-1.61V24.9A5.909,5.909,0,0,0,24.212,19Z" transform="translate(7.455 21.792)" fill="#21bf79"/>
</svg>
