<svg xmlns="http://www.w3.org/2000/svg" width="45.409" height="52.128" viewBox="0 0 45.409 52.128">
  <g id="Group_6330" data-name="Group 6330" transform="translate(-685.059 -2466.872)">
    <g id="Group_6318" data-name="Group 6318" transform="translate(0 -201)">
      <g id="Ellipse_395" data-name="Ellipse 395" transform="translate(691 2680)" fill="#7c45d9" stroke="#7c45d9" stroke-width="7">
        <circle cx="17" cy="17" r="17" stroke="none"/>
        <circle cx="17" cy="17" r="13.5" fill="none"/>
      </g>
      <g id="time-is-money" transform="translate(652.059 2667.872)">
        <path id="Path_6784" data-name="Path 6784" d="M154.5,175a11.5,11.5,0,1,0,11.5,11.5A11.518,11.518,0,0,0,154.5,175Zm1.529,18.117v.319a1.527,1.527,0,0,1-3.054,0v-.147a5.534,5.534,0,0,1-2.159-.918,1.527,1.527,0,0,1,1.672-2.556,2.707,2.707,0,0,0,2,.518,1.45,1.45,0,0,0,1.45-1.232,1.019,1.019,0,0,0-.765-1.218,12.641,12.641,0,0,1-3.489-1.685c-2.1-1.645-1.464-5.4,1.288-6.4v-.221a1.527,1.527,0,0,1,3.054,0v.085a4.033,4.033,0,0,1,1.775,1.02,1.527,1.527,0,0,1-2.177,2.143,1.54,1.54,0,0,0-1.574-.169.847.847,0,0,0-.54.671.6.6,0,0,0,.059.471A10.5,10.5,0,0,0,156.2,185C160.225,186.426,159.734,191.779,156.034,193.117Z" transform="translate(-98.801 -157.183)" fill="#7c45d9"/>
        <path id="Path_6785" data-name="Path 6785" d="M72.8,14.384l1.9-1.9a1.527,1.527,0,1,0-2.16-2.16l-1.9,1.9A22.5,22.5,0,0,0,57.232,6.67V3.054h3.36a1.527,1.527,0,1,0,0-3.054H50.817a1.527,1.527,0,1,0,0,3.054h3.36V6.67a22.5,22.5,0,0,0-13.411,5.555l-1.9-1.9a1.527,1.527,0,0,0-2.16,2.16l1.9,1.9A22.535,22.535,0,0,0,33,29.322a22.7,22.7,0,1,0,45.409,0A22.536,22.536,0,0,0,72.8,14.384Zm-17.1,29.5A14.559,14.559,0,1,1,70.264,29.322,14.576,14.576,0,0,1,55.7,43.882Z" fill="#7c45d9"/>
      </g>
    </g>
    <text id="_" data-name="$" transform="translate(698 2507)" fill="#fff" font-size="29" font-family="SegoeUI-Bold, Segoe UI" font-weight="700" letter-spacing="0.03em"><tspan x="0" y="0">$</tspan></text>
  </g>
</svg>
