<svg id="Group_6311" data-name="Group 6311" xmlns="http://www.w3.org/2000/svg" width="179.841" height="180.135" viewBox="0 0 179.841 180.135">
  <path id="rect8528" d="M210.9,228.935H388.73a1,1,0,0,1,1,1V408.065a1,1,0,0,1-1,1H210.9a1,1,0,0,1-1-1V229.939A1,1,0,0,1,210.9,228.935Z" transform="translate(-209.893 -228.935)" fill="#d3a029" fill-rule="evenodd"/>
  <g id="text6065-3" transform="translate(51.906 15.949)">
    <path id="path1897" d="M252.661,257.368v-1.949l4.08-11.221h-3.786V242.18h6.211v1.745l-4.058,11.266h4.058v2.176Z" transform="translate(-252.661 -242.044)" fill="#fff"/>
    <path id="path1899" d="M266.03,255.192v2.176h-6.506V242.18h6.506v1.995h-4.352v4.488h3.808v2.063h-3.808v4.466Z" transform="translate(-251.19 -242.044)" fill="#fff"/>
    <path id="path1901" d="M265.8,257.368V242.18h3.808a3.381,3.381,0,0,1,2.516,1.043,3.482,3.482,0,0,1,1.043,2.562v1.405a3.566,3.566,0,0,1-1.791,3.219l2.312,6.959h-2.312l-2.04-6.506h-1.36v6.506Zm4.828-8.909a1.318,1.318,0,0,0,.272-.567,2.551,2.551,0,0,0,.091-.7v-1.405a1.636,1.636,0,0,0-.385-1.133,1.35,1.35,0,0,0-1.088-.453h-1.541v4.738h1.519a1.5,1.5,0,0,0,1.133-.476Z" transform="translate(-249.845 -242.044)" fill="#fff"/>
    <path id="path1903" d="M273.579,243.632a3.656,3.656,0,0,1,1.315-1.133,3.553,3.553,0,0,1,1.677-.431,3.638,3.638,0,0,1,1.564.34,3.506,3.506,0,0,1,1.247.929,3.306,3.306,0,0,1,.68,1.224,4.691,4.691,0,0,1,.181,1.337v7.73a4.779,4.779,0,0,1-.136,1.2,3.694,3.694,0,0,1-1.745,2.244,3.334,3.334,0,0,1-1.723.453,3.946,3.946,0,0,1-1.043-.136,4.684,4.684,0,0,1-.929-.408,4.232,4.232,0,0,1-.771-.567,2.8,2.8,0,0,1-.5-.657,4.356,4.356,0,0,1-.408-1.133,6.466,6.466,0,0,1-.068-1V245.9a4.778,4.778,0,0,1,.136-1.2,3.661,3.661,0,0,1,.521-1.065Zm4.216,1.2a1.352,1.352,0,0,0-1.179-.635,1.509,1.509,0,0,0-.771.227,1.344,1.344,0,0,0-.521.476,1.924,1.924,0,0,0-.181.544,2.854,2.854,0,0,0-.045.453v7.979a1.531,1.531,0,0,0,.023.249,2.1,2.1,0,0,0,.363.748,1.3,1.3,0,0,0,1.133.476,1.436,1.436,0,0,0,.725-.181,1.257,1.257,0,0,0,.476-.453,1.656,1.656,0,0,0,.2-.5,3.108,3.108,0,0,0,.045-.589V245.9a3,3,0,0,0-.045-.635.916.916,0,0,0-.227-.431Z" transform="translate(-248.318 -242.068)" fill="#fff"/>
    <path id="path1905" d="M253.035,274.615V259.427h2.154v6.483h2.766v-6.483h2.154v15.188h-2.154v-6.778h-2.766v6.778Z" transform="translate(-252.581 -238.346)" fill="#fff"/>
    <path id="path1907" d="M267.374,273.028a3.92,3.92,0,0,1-1.292,1.247,3.213,3.213,0,0,1-1.723.476,3.451,3.451,0,0,1-.952-.136,5.377,5.377,0,0,1-.861-.34,4.374,4.374,0,0,1-.725-.5,2.171,2.171,0,0,1-.476-.612,4.773,4.773,0,0,1-.453-1.111,5.45,5.45,0,0,1-.091-1.02V259.427h2.176v11.9l.045.227a1.858,1.858,0,0,0,.34.635,1.175,1.175,0,0,0,1.02.408,1.09,1.09,0,0,0,.975-.476,1.893,1.893,0,0,0,.34-1.088V259.427h2.176v11.606a4.7,4.7,0,0,1-.113,1.043,3.233,3.233,0,0,1-.385.952Z" transform="translate(-250.916 -238.346)" fill="#fff"/>
    <path id="path1909" d="M273.306,274.615l-3.378-9.226v9.226h-2.176V259.427h2.063l3.355,9.2v-9.2h2.176v15.188Z" transform="translate(-249.426 -238.346)" fill="#fff"/>
    <path id="path1911" d="M282.108,273.052a3.707,3.707,0,0,1-1.337,1.269,3.625,3.625,0,0,1-1.791.453,3.711,3.711,0,0,1-1.677-.408,3.638,3.638,0,0,1-1.247-1,3.792,3.792,0,0,1-.589-1.224,6.4,6.4,0,0,1-.136-1.383v-7.594a5.769,5.769,0,0,1,.113-1.133,6.6,6.6,0,0,1,.839-1.609,3.029,3.029,0,0,1,2.766-1.111,3.51,3.51,0,0,1,1.7.431,3.2,3.2,0,0,1,1.2,1.065,3.152,3.152,0,0,1,.544,1.179,4.852,4.852,0,0,1,.136,1.179v.635h-2.154v-.635a1.947,1.947,0,0,0-.023-.317,1.406,1.406,0,0,0-.023-.272,1.775,1.775,0,0,0-.34-.657,1.209,1.209,0,0,0-1.065-.453,1.281,1.281,0,0,0-1.179.476,2.749,2.749,0,0,0-.317.7,2.682,2.682,0,0,0-.045.521v7.979a1.4,1.4,0,0,0,.023.272,2.418,2.418,0,0,0,.34.7A1.254,1.254,0,0,0,279,272.6q.884,0,1.133-.476.136-.249.2-.408a1.746,1.746,0,0,0,.091-.317.855.855,0,0,0,.045-.272V268.11H278.73v-1.9h3.9v4.556q0,.476-.023.816a2.973,2.973,0,0,1-.091.567,2.579,2.579,0,0,1-.181.476,4,4,0,0,1-.227.431Z" transform="translate(-247.801 -238.37)" fill="#fff"/>
    <path id="path1913" d="M289.2,272.439v2.176h-6.506V259.427H289.2v1.995h-4.352v4.488h3.808v2.063h-3.808v4.466Z" transform="translate(-246.223 -238.346)" fill="#fff"/>
    <path id="path1915" d="M288.826,274.615V259.427h3.808a3.381,3.381,0,0,1,2.516,1.043,3.482,3.482,0,0,1,1.043,2.562v1.406a3.566,3.566,0,0,1-1.791,3.219l2.312,6.959H294.4l-2.04-6.506H291v6.506Zm4.828-8.909a1.318,1.318,0,0,0,.272-.567,2.552,2.552,0,0,0,.091-.7v-1.405a1.636,1.636,0,0,0-.385-1.133,1.35,1.35,0,0,0-1.088-.453H291v4.738h1.519a1.5,1.5,0,0,0,1.133-.476Z" transform="translate(-244.908 -238.346)" fill="#fff"/>
  </g>
  <g id="text6075-0" transform="translate(19.04 14.858)">
    <path id="path1918" d="M241.166,277.837H225.707v-4.773l9.655-18.768a5.882,5.882,0,0,0,.651-2.658v-2.712a2.511,2.511,0,0,0-.759-1.844,2.429,2.429,0,0,0-1.844-.814,2.673,2.673,0,0,0-1.79.705,2.276,2.276,0,0,0-.759,1.736v3.2H225.6v-2.6a11.727,11.727,0,0,1,1.573-5.153q1.627-2.983,6.509-2.983a6.922,6.922,0,0,1,5.262,2.332,7.742,7.742,0,0,1,2.224,5.424v3.309a9.334,9.334,0,0,1-1.193,4.448l-8.136,16h9.33Z" transform="translate(-225.598 -241.169)" fill="#fff"/>
  </g>
  <path id="path6925" d="M304.49,372.77c1.426,0,1.68-1.552,1.61-2.557-.085-1.221,1.089-1.415,1.7-1.61a48,48,0,0,0,19.983-12.5c5.523-5.828,9.881-11.876,11.459-21.972a1.722,1.722,0,0,0-1.7-2.178H243.625a1.722,1.722,0,0,0-1.7,2.178c1.579,10.1,5.937,16.144,11.459,21.972a48,48,0,0,0,19.983,12.5c.615.2,1.79.389,1.7,1.61-.07,1,.184,2.557,1.61,2.557Zm-32.025-44.945h6.228a14.768,14.768,0,0,0-3.951-14.8,12.546,12.546,0,0,1-3.557-8.538,17.808,17.808,0,0,1,3.409-10.512c2.005-3.228-2.773-5.5-4.83-3.031a22.5,22.5,0,0,0-5.019,14.016c0,5.593,2.715,8.433,5.493,11.743,5.158,6.148,2.227,11.121,2.227,11.121Zm37.5,0H316.2a14.768,14.768,0,0,0-3.951-14.8,12.546,12.546,0,0,1-3.557-8.538,17.808,17.808,0,0,1,3.409-10.512c2.005-3.228-2.773-5.5-4.83-3.031a22.5,22.5,0,0,0-5.019,14.016c0,5.593,2.715,8.433,5.493,11.743,5.158,6.148,2.227,11.121,2.227,11.121Zm-18.657,0h6.228a14.768,14.768,0,0,0-3.951-14.8,12.546,12.546,0,0,1-3.557-8.538,17.807,17.807,0,0,1,3.409-10.512c2-3.228-2.773-5.5-4.83-3.031a22.5,22.5,0,0,0-5.019,14.016c0,5.593,2.715,8.433,5.493,11.743,5.158,6.148,2.227,11.121,2.227,11.121Z" transform="translate(-203.065 -215.865)" fill="#fff" fill-rule="evenodd"/>
</svg>
