<svg xmlns="http://www.w3.org/2000/svg" width="44.56" height="41.862" viewBox="0 0 44.56 41.862">
  <g id="Group_6319" data-name="Group 6319" transform="translate(-105 -240.89)">
    <path id="Path_6786" data-name="Path 6786" d="M140.4,240.89H114.163a9.164,9.164,0,0,0-.054,18.327h4.115v-7.18a5.838,5.838,0,0,1,5.831-5.831h.013a5.84,5.84,0,0,1,5.818,5.831v7.18H140.4a9.163,9.163,0,0,0,0-18.327Zm2.593,7.885L137.768,254a1.305,1.305,0,0,1-1.846,0l-2.611-2.611a1.305,1.305,0,1,1,1.846-1.846l1.688,1.688,4.3-4.3a1.305,1.305,0,1,1,1.846,1.846Zm0,0" transform="translate(0)" fill="#21bf79"/>
    <path id="Path_6787" data-name="Path 6787" d="M193.154,323.277l-8.4-.874v-9.98a3.22,3.22,0,0,0-6.44,0v16.7h-.029l-3.178-2.654a3.1,3.1,0,1,0-3.97,4.755l6.452,5.384h19v-9.448a3.915,3.915,0,0,0-3.432-3.886Zm0,0" transform="translate(-57.474 -60.386)" fill="#21bf79"/>
    <path id="Path_6788" data-name="Path 6788" d="M241.461,570.5a1.306,1.306,0,0,0,1.305,1.305h15.666a1.305,1.305,0,0,0,1.305-1.305V567.89H241.461Zm0,0" transform="translate(-120.626 -289.054)" fill="#21bf79"/>
  </g>
</svg>
