<svg id="Group_6310" data-name="Group 6310" xmlns="http://www.w3.org/2000/svg" width="179.655" height="179.949" viewBox="0 0 179.655 179.949">
  <path id="rect8528-63-2-4-3" d="M866.79,389.728h177.65a1,1,0,0,1,1,1V568.674a1,1,0,0,1-1,1H866.79a1,1,0,0,1-1-1V390.731A1,1,0,0,1,866.79,389.728Z" transform="translate(-865.787 -389.728)" fill="#cf8d2a" fill-rule="evenodd"/>
  <g id="text6065-3-2-9-6-6-5-0-0-8-8-8" transform="translate(56.991 15.304)">
    <path id="path2386" d="M913.443,417.628V402.456h3.8a3.378,3.378,0,0,1,2.514,1.042,3.479,3.479,0,0,1,1.042,2.559v1.4a3.562,3.562,0,0,1-1.789,3.216l2.31,6.952h-2.31l-2.038-6.5h-1.359v6.5Zm4.823-8.9a1.316,1.316,0,0,0,.272-.566,2.551,2.551,0,0,0,.091-.7v-1.4a1.634,1.634,0,0,0-.385-1.132,1.348,1.348,0,0,0-1.087-.453h-1.54V409.2h1.517a1.5,1.5,0,0,0,1.132-.476Z" transform="translate(-912.621 -402.32)" fill="#fff"/>
    <path id="path2388" d="M926.921,415.454v2.174h-6.5V402.456h6.5v1.993h-4.348v4.484h3.8v2.061h-3.8v4.461Z" transform="translate(-911.134 -402.32)" fill="#fff"/>
    <path id="path2390" d="M928.193,413.87v.385a1.414,1.414,0,0,0,.023.272,2.074,2.074,0,0,0,.34.657,1.288,1.288,0,0,0,1.132.453,1.941,1.941,0,0,0,.838-.181,1.362,1.362,0,0,0,.566-.521,1.261,1.261,0,0,0,.159-.476,2.106,2.106,0,0,0,.045-.408v-1.472a1.382,1.382,0,0,0-.181-.77,2.314,2.314,0,0,0-.815-.657,14.57,14.57,0,0,0-1.54-.634,4.356,4.356,0,0,1-1.857-1.291,3.6,3.6,0,0,1-.747-2.4v-.679a3.764,3.764,0,0,1,1.042-2.672,3.412,3.412,0,0,1,2.581-1.132,3.45,3.45,0,0,1,2.627,1.11,3.749,3.749,0,0,1,1.064,2.695v.679h-2.174v-.679a1.79,1.79,0,0,0-.023-.294,1.269,1.269,0,0,0-.023-.249.952.952,0,0,0-.113-.272q-.091-.158-.249-.385a1.207,1.207,0,0,0-1.064-.453,1.4,1.4,0,0,0-1.087.476,1.746,1.746,0,0,0-.408,1.178v.883a1.633,1.633,0,0,0,.136.725,2.084,2.084,0,0,0,.725.566q.181.091.544.249.385.136.928.34a4.642,4.642,0,0,1,1.947,1.291,3.454,3.454,0,0,1,.861,2.446v1.223a4.833,4.833,0,0,1-.159,1.336,5.17,5.17,0,0,1-.928,1.585,3.192,3.192,0,0,1-2.649,1,3.231,3.231,0,0,1-2.853-1.268A4.639,4.639,0,0,1,926,413.87v-.543h2.2Z" transform="translate(-909.946 -402.344)" fill="#fff"/>
    <path id="path2392" d="M932.968,417.628V402.456h3.6a2.939,2.939,0,0,1,1.291.294,3.8,3.8,0,0,1,1.087.725,3.387,3.387,0,0,1,.747,1.042,2.746,2.746,0,0,1,.317,1.178v2.423a3.392,3.392,0,0,1-.294,1.4,3.5,3.5,0,0,1-.747,1.11,3.574,3.574,0,0,1-2.491,1.019h-1.336v5.978Zm4.6-8.469a.848.848,0,0,0,.249-.43,2,2,0,0,0,.068-.566v-2.242a1.457,1.457,0,0,0-.385-1.042,1.328,1.328,0,0,0-1.042-.43h-1.313v5.14h1.132a3.1,3.1,0,0,0,.725-.068,1.388,1.388,0,0,0,.566-.362Z" transform="translate(-908.46 -402.32)" fill="#fff"/>
    <path id="path2394" d="M940.31,403.906a3.652,3.652,0,0,1,1.313-1.132,3.549,3.549,0,0,1,1.676-.43,3.635,3.635,0,0,1,1.563.34,3.5,3.5,0,0,1,1.246.928,3.3,3.3,0,0,1,.679,1.223,4.684,4.684,0,0,1,.181,1.336v7.722a4.776,4.776,0,0,1-.136,1.2,3.69,3.69,0,0,1-1.744,2.242,3.33,3.33,0,0,1-1.721.453,3.939,3.939,0,0,1-1.042-.136,4.666,4.666,0,0,1-.928-.408,4.227,4.227,0,0,1-.77-.566,2.8,2.8,0,0,1-.5-.657,4.352,4.352,0,0,1-.408-1.132,6.45,6.45,0,0,1-.068-1v-7.722a4.779,4.779,0,0,1,.136-1.2,3.66,3.66,0,0,1,.521-1.064Zm4.212,1.2a1.351,1.351,0,0,0-1.178-.634,1.506,1.506,0,0,0-.77.227,1.34,1.34,0,0,0-.521.476,1.913,1.913,0,0,0-.181.543,2.844,2.844,0,0,0-.045.453v7.971a1.515,1.515,0,0,0,.023.249,2.09,2.09,0,0,0,.362.747,1.3,1.3,0,0,0,1.132.476,1.434,1.434,0,0,0,.724-.181,1.256,1.256,0,0,0,.476-.453,1.655,1.655,0,0,0,.2-.5,3.114,3.114,0,0,0,.045-.589v-7.722a3.009,3.009,0,0,0-.045-.634.915.915,0,0,0-.226-.43Z" transform="translate(-907.035 -402.344)" fill="#fff"/>
    <path id="path2396" d="M952.512,417.628l-3.374-9.217v9.217h-2.174V402.456h2.061l3.351,9.194v-9.194h2.174v15.172Z" transform="translate(-905.477 -402.32)" fill="#fff"/>
    <path id="path2398" d="M955.938,413.87v.385a1.414,1.414,0,0,0,.023.272,2.072,2.072,0,0,0,.34.657,1.288,1.288,0,0,0,1.132.453,1.942,1.942,0,0,0,.838-.181,1.362,1.362,0,0,0,.566-.521,1.264,1.264,0,0,0,.159-.476,2.1,2.1,0,0,0,.045-.408v-1.472a1.382,1.382,0,0,0-.181-.77,2.315,2.315,0,0,0-.815-.657,14.547,14.547,0,0,0-1.54-.634,4.356,4.356,0,0,1-1.857-1.291,3.6,3.6,0,0,1-.747-2.4v-.679a3.765,3.765,0,0,1,1.042-2.672,3.412,3.412,0,0,1,2.582-1.132,3.449,3.449,0,0,1,2.627,1.11,3.749,3.749,0,0,1,1.064,2.695v.679h-2.174v-.679a1.783,1.783,0,0,0-.023-.294A1.264,1.264,0,0,0,959,405.6a.943.943,0,0,0-.113-.272q-.09-.158-.249-.385a1.207,1.207,0,0,0-1.064-.453,1.4,1.4,0,0,0-1.087.476,1.746,1.746,0,0,0-.408,1.178v.883a1.633,1.633,0,0,0,.136.725,2.085,2.085,0,0,0,.725.566q.181.091.543.249.385.136.929.34a4.645,4.645,0,0,1,1.947,1.291,3.454,3.454,0,0,1,.861,2.446v1.223a4.836,4.836,0,0,1-.158,1.336,5.171,5.171,0,0,1-.928,1.585,3.192,3.192,0,0,1-2.65,1,3.23,3.23,0,0,1-2.853-1.268,4.638,4.638,0,0,1-.883-2.649v-.543h2.2Z" transform="translate(-904.033 -402.344)" fill="#fff"/>
    <path id="path2400" d="M960.884,417.628V402.456h2.151v15.172Z" transform="translate(-902.51 -402.32)" fill="#fff"/>
    <path id="path2402" d="M967.5,402.456a2.988,2.988,0,0,1,1.313.294,4.983,4.983,0,0,1,1.381,1.019,3.032,3.032,0,0,1,.747,2.265v1.155a2.511,2.511,0,0,1-1.381,2.446,2.737,2.737,0,0,1,1.381,2.536v1.766a3.588,3.588,0,0,1-1.042,2.649,3.513,3.513,0,0,1-2.627,1.042h-3.351V402.456Zm1.291,4.506v-.928a1.5,1.5,0,0,0-.408-1.11,1.427,1.427,0,0,0-1.087-.43h-1.223v4.189h1.291a1.269,1.269,0,0,0,1.087-.453A2.137,2.137,0,0,0,968.788,406.962Zm0,6.975v-1.766a1.531,1.531,0,0,0-.408-1.132,1.383,1.383,0,0,0-1.087-.43h-1.223v4.869h1.245a1.4,1.4,0,0,0,1.064-.43A1.6,1.6,0,0,0,968.788,413.937Z" transform="translate(-901.864 -402.32)" fill="#fff"/>
    <path id="path2404" d="M977.107,417.628H970.63V402.456H972.8v13h4.3Z" transform="translate(-900.433 -402.32)" fill="#fff"/>
    <path id="path2406" d="M982.964,415.454v2.174h-6.5V402.456h6.5v1.993h-4.348v4.484h3.8v2.061h-3.8v4.461Z" transform="translate(-899.19 -402.32)" fill="#fff"/>
    <path id="path2408" d="M920.369,431.072a7.372,7.372,0,0,1-.091,1.245,2.863,2.863,0,0,1-.453,1.132,3.2,3.2,0,0,1-.521.611,3.952,3.952,0,0,1-.679.5,4.175,4.175,0,0,1-.793.34,2.774,2.774,0,0,1-.838.136,4.005,4.005,0,0,1-1.857-.43,2.92,2.92,0,0,1-1.2-1.087,4.015,4.015,0,0,1-.5-1.223,7.747,7.747,0,0,1-.091-1.223v-7.813a5.13,5.13,0,0,1,.113-1.132,3.567,3.567,0,0,1,.543-1.11,3.278,3.278,0,0,1,1.155-1,3.088,3.088,0,0,1,1.563-.43,3.561,3.561,0,0,1,3.646,3.669v.815h-2.151v-.815a1.6,1.6,0,0,0-.362-1.064,1.219,1.219,0,0,0-1.019-.43,1.233,1.233,0,0,0-1,.43,1.664,1.664,0,0,0-.34,1.064v8.4a1.982,1.982,0,0,0,.317.77,1.181,1.181,0,0,0,1.042.453,1.1,1.1,0,0,0,1.019-.408,2.547,2.547,0,0,0,.294-.589,2.607,2.607,0,0,0,.045-.544v-.77h2.151Z" transform="translate(-912.641 -398.668)" fill="#fff"/>
    <path id="path2410" d="M921.206,421.153a3.654,3.654,0,0,1,1.313-1.132,3.55,3.55,0,0,1,1.676-.43,3.637,3.637,0,0,1,1.563.34,3.5,3.5,0,0,1,1.245.928,3.3,3.3,0,0,1,.679,1.223,4.686,4.686,0,0,1,.181,1.336v7.722a4.773,4.773,0,0,1-.136,1.2,3.69,3.69,0,0,1-1.744,2.242,3.331,3.331,0,0,1-1.721.453,3.939,3.939,0,0,1-1.042-.136,4.674,4.674,0,0,1-.928-.408,4.22,4.22,0,0,1-.77-.566,2.794,2.794,0,0,1-.5-.657,4.358,4.358,0,0,1-.408-1.132,6.474,6.474,0,0,1-.068-1v-7.722a4.772,4.772,0,0,1,.136-1.2,3.654,3.654,0,0,1,.521-1.064Zm4.212,1.2a1.35,1.35,0,0,0-1.178-.634,1.507,1.507,0,0,0-.77.227,1.341,1.341,0,0,0-.521.475,1.92,1.92,0,0,0-.181.543,2.853,2.853,0,0,0-.045.453v7.971a1.529,1.529,0,0,0,.023.249,2.1,2.1,0,0,0,.362.747,1.3,1.3,0,0,0,1.132.476,1.435,1.435,0,0,0,.725-.181,1.255,1.255,0,0,0,.475-.453,1.656,1.656,0,0,0,.2-.5,3.116,3.116,0,0,0,.045-.589v-7.722a3.009,3.009,0,0,0-.045-.634.914.914,0,0,0-.226-.43Z" transform="translate(-911.107 -398.668)" fill="#fff"/>
    <path id="path2412" d="M933.323,434.875l-3.374-9.216v9.216h-2.174V419.7h2.061l3.351,9.194V419.7h2.174v15.172Z" transform="translate(-909.567 -398.644)" fill="#fff"/>
    <path id="path2414" d="M936.664,431.117v.385a1.418,1.418,0,0,0,.023.272,2.077,2.077,0,0,0,.34.657,1.288,1.288,0,0,0,1.132.453A1.942,1.942,0,0,0,939,432.7a1.362,1.362,0,0,0,.566-.521,1.26,1.26,0,0,0,.158-.476,2.094,2.094,0,0,0,.045-.408v-1.472a1.383,1.383,0,0,0-.181-.77,2.314,2.314,0,0,0-.815-.657,14.56,14.56,0,0,0-1.54-.634,4.357,4.357,0,0,1-1.857-1.291,3.6,3.6,0,0,1-.747-2.4V423.4a3.765,3.765,0,0,1,1.042-2.672,3.412,3.412,0,0,1,2.582-1.132,3.449,3.449,0,0,1,2.627,1.11,3.75,3.75,0,0,1,1.064,2.695v.679h-2.174V423.4a1.776,1.776,0,0,0-.023-.294,1.259,1.259,0,0,0-.023-.249.949.949,0,0,0-.113-.272q-.091-.158-.249-.385a1.207,1.207,0,0,0-1.064-.453,1.4,1.4,0,0,0-1.087.476,1.746,1.746,0,0,0-.408,1.178v.883a1.633,1.633,0,0,0,.136.725,2.086,2.086,0,0,0,.725.566q.181.091.543.249.385.136.928.34a4.643,4.643,0,0,1,1.947,1.291,3.454,3.454,0,0,1,.861,2.446v1.223a4.837,4.837,0,0,1-.158,1.336,5.173,5.173,0,0,1-.928,1.585,3.193,3.193,0,0,1-2.65,1,3.23,3.23,0,0,1-2.853-1.268,4.639,4.639,0,0,1-.883-2.649v-.544h2.2Z" transform="translate(-908.141 -398.668)" fill="#fff"/>
    <path id="path2416" d="M948.006,433.29a3.916,3.916,0,0,1-1.291,1.245,3.209,3.209,0,0,1-1.721.476,3.445,3.445,0,0,1-.951-.136,5.365,5.365,0,0,1-.86-.34,4.372,4.372,0,0,1-.725-.5,2.164,2.164,0,0,1-.476-.611,4.762,4.762,0,0,1-.453-1.11,5.441,5.441,0,0,1-.091-1.019V419.7h2.174v11.889l.045.226a1.852,1.852,0,0,0,.34.634,1.174,1.174,0,0,0,1.019.408,1.089,1.089,0,0,0,.974-.476,1.89,1.89,0,0,0,.34-1.087V419.7H948.5V431.3a4.686,4.686,0,0,1-.113,1.042,3.23,3.23,0,0,1-.385.951Z" transform="translate(-906.655 -398.644)" fill="#fff"/>
    <path id="path2418" d="M955.472,434.875v-9.239l-2.174,6.476h-1.087l-2.151-6.476v9.239h-2.174V419.7h2.038l2.876,8.084,2.83-8.084h1.993v15.172Z" transform="translate(-905.281 -398.644)" fill="#fff"/>
    <path id="path2420" d="M957.155,434.875V419.7h3.6a2.936,2.936,0,0,1,1.291.294,3.8,3.8,0,0,1,1.087.725,3.389,3.389,0,0,1,.747,1.042,2.747,2.747,0,0,1,.317,1.178v2.423a3.393,3.393,0,0,1-.294,1.4,3.5,3.5,0,0,1-.747,1.11,3.574,3.574,0,0,1-2.491,1.019h-1.336v5.978Zm4.6-8.469a.848.848,0,0,0,.249-.43,2.009,2.009,0,0,0,.068-.566v-2.242a1.456,1.456,0,0,0-.385-1.042,1.327,1.327,0,0,0-1.042-.43h-1.313v5.14h1.132a3.094,3.094,0,0,0,.725-.068,1.388,1.388,0,0,0,.566-.362Z" transform="translate(-903.305 -398.644)" fill="#fff"/>
    <path id="path2422" d="M965.859,434.875V421.718H963.3V419.7h7.314v2.015h-2.6v13.157Z" transform="translate(-901.996 -398.644)" fill="#fff"/>
    <path id="path2424" d="M969.973,434.875V419.7h2.151v15.172Z" transform="translate(-900.573 -398.644)" fill="#fff"/>
    <path id="path2426" d="M973.7,421.153a3.653,3.653,0,0,1,1.313-1.132,3.55,3.55,0,0,1,1.676-.43,3.636,3.636,0,0,1,1.562.34,3.5,3.5,0,0,1,1.246.928,3.3,3.3,0,0,1,.679,1.223,4.684,4.684,0,0,1,.181,1.336v7.722a4.774,4.774,0,0,1-.136,1.2,3.691,3.691,0,0,1-1.744,2.242,3.331,3.331,0,0,1-1.721.453,3.939,3.939,0,0,1-1.042-.136,4.666,4.666,0,0,1-.928-.408,4.221,4.221,0,0,1-.77-.566,2.8,2.8,0,0,1-.5-.657,4.355,4.355,0,0,1-.408-1.132,6.466,6.466,0,0,1-.068-1v-7.722a4.773,4.773,0,0,1,.136-1.2,3.657,3.657,0,0,1,.521-1.064Zm4.212,1.2a1.351,1.351,0,0,0-1.178-.634,1.507,1.507,0,0,0-.77.227,1.341,1.341,0,0,0-.521.475,1.917,1.917,0,0,0-.181.543,2.859,2.859,0,0,0-.045.453v7.971a1.522,1.522,0,0,0,.023.249,2.091,2.091,0,0,0,.362.747,1.3,1.3,0,0,0,1.132.476,1.434,1.434,0,0,0,.725-.181,1.257,1.257,0,0,0,.476-.453,1.657,1.657,0,0,0,.2-.5,3.111,3.111,0,0,0,.045-.589v-7.722a3,3,0,0,0-.045-.634.915.915,0,0,0-.226-.43Z" transform="translate(-899.918 -398.668)" fill="#fff"/>
    <path id="path2428" d="M985.992,434.875l-3.374-9.216v9.216h-2.174V419.7H982.5l3.352,9.194V419.7h2.174v15.172Z" transform="translate(-898.342 -398.644)" fill="#fff"/>
    <path id="path2430" d="M912.766,452.122l3.4-15.172h1.879l3.4,15.172h-2.332l-.612-3.261h-2.808l-.634,3.261Zm3.306-5.276h2.038l-1.019-5.525Z" transform="translate(-912.766 -394.968)" fill="#fff"/>
    <path id="path2432" d="M926.29,452.122l-3.374-9.217v9.217h-2.174V436.95H922.8l3.352,9.194V436.95h2.174v15.172Z" transform="translate(-911.066 -394.968)" fill="#fff"/>
    <path id="path2434" d="M931.447,436.95a3.425,3.425,0,0,1,2.514,1.042,3.316,3.316,0,0,1,1.064,2.491v7.88a3.72,3.72,0,0,1-1.019,2.717,3.514,3.514,0,0,1-2.627,1.042H928V436.95Zm1.427,11.413v-7.88a1.378,1.378,0,0,0-.476-1.064,1.55,1.55,0,0,0-1.11-.43h-1.132v11.119h1.064q1.653,0,1.653-1.744Z" transform="translate(-909.518 -394.968)" fill="#fff"/>
    <path id="path2436" d="M936.769,452.122V436.95h3.6a2.94,2.94,0,0,1,1.291.294,3.8,3.8,0,0,1,1.087.725,3.385,3.385,0,0,1,.747,1.042,2.744,2.744,0,0,1,.317,1.178v2.423a3.391,3.391,0,0,1-.294,1.4,3.505,3.505,0,0,1-.747,1.11,3.575,3.575,0,0,1-2.491,1.019h-1.336v5.978Zm4.6-8.469a.846.846,0,0,0,.249-.43,1.992,1.992,0,0,0,.068-.566v-2.242a1.456,1.456,0,0,0-.385-1.042,1.327,1.327,0,0,0-1.042-.43h-1.313v5.14h1.132a3.1,3.1,0,0,0,.725-.068,1.388,1.388,0,0,0,.566-.362Z" transform="translate(-907.65 -394.968)" fill="#fff"/>
    <path id="path2438" d="M943.653,452.122V436.95h3.8a3.378,3.378,0,0,1,2.514,1.042,3.479,3.479,0,0,1,1.042,2.559v1.4a3.562,3.562,0,0,1-1.789,3.216l2.31,6.952h-2.31l-2.038-6.5h-1.359v6.5Zm4.823-8.9a1.317,1.317,0,0,0,.272-.566,2.549,2.549,0,0,0,.091-.7v-1.4a1.634,1.634,0,0,0-.385-1.132,1.348,1.348,0,0,0-1.087-.453h-1.54V443.7h1.517a1.5,1.5,0,0,0,1.132-.476Z" transform="translate(-906.183 -394.968)" fill="#fff"/>
    <path id="path2440" d="M951.158,438.4a3.653,3.653,0,0,1,1.313-1.132,3.549,3.549,0,0,1,1.676-.43,3.635,3.635,0,0,1,1.563.34,3.5,3.5,0,0,1,1.245.928,3.305,3.305,0,0,1,.679,1.223,4.689,4.689,0,0,1,.181,1.336v7.722a4.778,4.778,0,0,1-.136,1.2,3.69,3.69,0,0,1-1.744,2.242,3.331,3.331,0,0,1-1.721.453,3.939,3.939,0,0,1-1.042-.136,4.683,4.683,0,0,1-.928-.408,4.219,4.219,0,0,1-.77-.566,2.792,2.792,0,0,1-.5-.657,4.345,4.345,0,0,1-.408-1.132,6.455,6.455,0,0,1-.068-1v-7.722a4.778,4.778,0,0,1,.136-1.2,3.656,3.656,0,0,1,.521-1.064Zm4.212,1.2a1.35,1.35,0,0,0-1.177-.634,1.507,1.507,0,0,0-.77.226,1.344,1.344,0,0,0-.521.476,1.921,1.921,0,0,0-.181.543,2.849,2.849,0,0,0-.045.453v7.971a1.535,1.535,0,0,0,.023.249,2.094,2.094,0,0,0,.362.747,1.3,1.3,0,0,0,1.132.476,1.434,1.434,0,0,0,.725-.181,1.255,1.255,0,0,0,.476-.453,1.657,1.657,0,0,0,.2-.5,3.116,3.116,0,0,0,.045-.589v-7.722a3.011,3.011,0,0,0-.045-.634.916.916,0,0,0-.226-.43Z" transform="translate(-904.723 -394.992)" fill="#fff"/>
    <path id="path2442" d="M961.168,436.95a3.425,3.425,0,0,1,2.513,1.042,3.316,3.316,0,0,1,1.064,2.491v7.88a3.72,3.72,0,0,1-1.019,2.717,3.514,3.514,0,0,1-2.627,1.042h-3.374V436.95Zm1.427,11.413v-7.88a1.377,1.377,0,0,0-.476-1.064,1.55,1.55,0,0,0-1.11-.43h-1.132v11.119h1.064q1.653,0,1.653-1.744Z" transform="translate(-903.183 -394.968)" fill="#fff"/>
    <path id="path2444" d="M971.534,450.537a3.915,3.915,0,0,1-1.291,1.245,3.209,3.209,0,0,1-1.721.476,3.447,3.447,0,0,1-.951-.136,5.367,5.367,0,0,1-.86-.34,4.371,4.371,0,0,1-.725-.5,2.17,2.17,0,0,1-.476-.611,4.762,4.762,0,0,1-.453-1.11,5.446,5.446,0,0,1-.091-1.019V436.95h2.174v11.889l.045.226a1.856,1.856,0,0,0,.34.634,1.173,1.173,0,0,0,1.019.408,1.089,1.089,0,0,0,.974-.476,1.89,1.89,0,0,0,.34-1.087V436.95h2.174v11.594a4.683,4.683,0,0,1-.113,1.042A3.23,3.23,0,0,1,971.534,450.537Z" transform="translate(-901.64 -394.968)" fill="#fff"/>
    <path id="path2446" d="M979.177,448.319a7.379,7.379,0,0,1-.091,1.245,2.867,2.867,0,0,1-.453,1.132,3.208,3.208,0,0,1-.521.611,3.937,3.937,0,0,1-.679.5,4.175,4.175,0,0,1-.792.34,2.773,2.773,0,0,1-.838.136,4,4,0,0,1-1.857-.43,2.92,2.92,0,0,1-1.2-1.087,4.016,4.016,0,0,1-.5-1.223,7.725,7.725,0,0,1-.091-1.223v-7.813a5.134,5.134,0,0,1,.113-1.132,3.571,3.571,0,0,1,.544-1.11,3.277,3.277,0,0,1,1.155-1,3.087,3.087,0,0,1,1.562-.43,3.561,3.561,0,0,1,3.646,3.668v.815h-2.151v-.815a1.6,1.6,0,0,0-.362-1.064,1.219,1.219,0,0,0-1.019-.43,1.233,1.233,0,0,0-1,.43,1.664,1.664,0,0,0-.34,1.064v8.4a1.982,1.982,0,0,0,.317.77,1.182,1.182,0,0,0,1.042.453,1.1,1.1,0,0,0,1.019-.408,2.551,2.551,0,0,0,.294-.589,2.612,2.612,0,0,0,.045-.543v-.77h2.151Z" transform="translate(-900.108 -394.992)" fill="#fff"/>
    <path id="path2448" d="M980.777,452.122V438.965h-2.559V436.95h7.314v2.015h-2.6v13.157Z" transform="translate(-898.816 -394.968)" fill="#fff"/>
    <path id="path2450" d="M984.976,452.122V436.95h2.151v15.172Z" transform="translate(-897.376 -394.968)" fill="#fff"/>
    <path id="path2452" d="M988.537,438.4a3.653,3.653,0,0,1,1.313-1.132,3.549,3.549,0,0,1,1.676-.43,3.634,3.634,0,0,1,1.562.34,3.5,3.5,0,0,1,1.246.928,3.3,3.3,0,0,1,.679,1.223,4.689,4.689,0,0,1,.181,1.336v7.722a4.77,4.77,0,0,1-.136,1.2,3.689,3.689,0,0,1-1.744,2.242,3.331,3.331,0,0,1-1.721.453,3.938,3.938,0,0,1-1.042-.136,4.679,4.679,0,0,1-.928-.408,4.223,4.223,0,0,1-.77-.566,2.792,2.792,0,0,1-.5-.657,4.349,4.349,0,0,1-.408-1.132,6.455,6.455,0,0,1-.068-1v-7.722a4.779,4.779,0,0,1,.136-1.2,3.658,3.658,0,0,1,.521-1.064Zm4.212,1.2a1.351,1.351,0,0,0-1.177-.634,1.507,1.507,0,0,0-.77.226,1.342,1.342,0,0,0-.521.476,1.919,1.919,0,0,0-.181.543,2.845,2.845,0,0,0-.045.453v7.971a1.516,1.516,0,0,0,.023.249,2.091,2.091,0,0,0,.362.747,1.3,1.3,0,0,0,1.132.476,1.435,1.435,0,0,0,.725-.181,1.257,1.257,0,0,0,.476-.453,1.655,1.655,0,0,0,.2-.5,3.108,3.108,0,0,0,.045-.589v-7.722a3.006,3.006,0,0,0-.045-.634.916.916,0,0,0-.227-.43Z" transform="translate(-896.757 -394.992)" fill="#fff"/>
    <path id="path2454" d="M1000.654,452.122l-3.374-9.217v9.217h-2.174V436.95h2.061l3.351,9.194V436.95h2.174v15.172Z" transform="translate(-895.217 -394.968)" fill="#fff"/>
  </g>
  <g id="text6075-0-6-9-2-5-9-0-9-4-2-8" transform="translate(13.353 14.629)">
    <path id="path2457" d="M882,438.36V407.474l-5.2,3.9v-5.527l5.2-3.793h5.148v36.3Z" transform="translate(-876.794 -401.73)" fill="#fff"/>
    <path id="path2459" d="M904.374,438.417H888.931v-4.768l9.645-18.748a5.876,5.876,0,0,0,.65-2.655v-2.709a2.509,2.509,0,0,0-.759-1.842,2.427,2.427,0,0,0-1.842-.813,2.671,2.671,0,0,0-1.788.7,2.273,2.273,0,0,0-.758,1.734v3.2h-5.256v-2.6a11.715,11.715,0,0,1,1.571-5.148q1.626-2.98,6.5-2.98a6.914,6.914,0,0,1,5.256,2.33,7.733,7.733,0,0,1,2.222,5.419v3.305a9.324,9.324,0,0,1-1.192,4.443l-8.128,15.985h9.32Z" transform="translate(-874.231 -401.787)" fill="#fff"/>
  </g>
  <path id="path8194" d="M943.207,497.331l-16.033,5.326a.971.971,0,0,0-.339,1.646l12.627,11.221a.97.97,0,0,0,1.6-.528l3.406-16.548a.971.971,0,0,0-1.256-1.118Zm34.7-35.727c-13.012,0-21.453,9.36-25.611,14.229,0,0,3.182,6.591,4.961,7.572,0,0,8.274-13.43,20.649-13.43a19.33,19.33,0,0,1,12.773,4.651c3.593,3.221,6.281,8.226,6.281,16.624a21.511,21.511,0,0,1-4.535,13.47,14.96,14.96,0,0,1-12.176,5.675,22.5,22.5,0,0,1-14.9-5.227c-4.446-3.556-8.648-9.157-12.693-16.9-2.076-3.974-5.424-10.411-10.667-16.012s-12.716-10.48-22.353-10.48a26.49,26.49,0,0,0-18.308,6.831c-5.137,4.822-8.388,12.346-8.433,22.2-.074,16.535,12.481,27.7,26.826,27.7a27.6,27.6,0,0,0,17.27-6.369l-5.611-6.213a19.1,19.1,0,0,1-11.66,4.21c-10.283,0-18.514-6.762-18.457-19.292.036-8.1,2.47-13.014,5.793-16.133a18.121,18.121,0,0,1,12.579-4.563c6.878,0,11.991,3.286,16.242,7.828s7.3,10.228,9.359,14.169c4.371,8.369,9.128,14.956,14.882,19.559a31.633,31.633,0,0,0,20.128,7.063,23.878,23.878,0,0,0,18.642-8.731,29.583,29.583,0,0,0,6.44-18.785c0-10.3-3.67-18.019-9.065-22.855A27.474,27.474,0,0,0,977.905,461.6Z" transform="translate(-860.009 -374.41)" fill="#fff" fill-rule="evenodd"/>
</svg>
