<svg id="Group_6309" data-name="Group 6309" xmlns="http://www.w3.org/2000/svg" width="179.655" height="179.949" viewBox="0 0 179.655 179.949">
  <path id="rect8528-63-2-4-3-6" d="M702.816,389.728H880.466a1,1,0,0,1,1,1V568.674a1,1,0,0,1-1,1H702.816a1,1,0,0,1-1-1V390.731A1,1,0,0,1,702.816,389.728Z" transform="translate(-701.813 -389.728)" fill="#f99d26" fill-rule="evenodd"/>
  <g id="text6065-3-2-9-6-6-5-0-0-8-8" transform="translate(49.552 15.304)">
    <path id="path2318" d="M744.857,413.87v.385a1.4,1.4,0,0,0,.023.272,2.072,2.072,0,0,0,.34.657,1.288,1.288,0,0,0,1.132.453,1.942,1.942,0,0,0,.838-.181,1.361,1.361,0,0,0,.566-.521,1.26,1.26,0,0,0,.158-.476,2.093,2.093,0,0,0,.045-.408v-1.472a1.383,1.383,0,0,0-.181-.77,2.316,2.316,0,0,0-.815-.657,14.587,14.587,0,0,0-1.54-.634,4.356,4.356,0,0,1-1.857-1.291,3.6,3.6,0,0,1-.747-2.4v-.679a3.765,3.765,0,0,1,1.042-2.672,3.412,3.412,0,0,1,2.581-1.132,3.449,3.449,0,0,1,2.627,1.11,3.749,3.749,0,0,1,1.064,2.695v.679h-2.174v-.679a1.789,1.789,0,0,0-.023-.294,1.269,1.269,0,0,0-.023-.249.954.954,0,0,0-.113-.272q-.09-.158-.249-.385a1.208,1.208,0,0,0-1.064-.453,1.4,1.4,0,0,0-1.087.476,1.746,1.746,0,0,0-.408,1.178v.883a1.634,1.634,0,0,0,.136.725,2.088,2.088,0,0,0,.725.566q.181.091.543.249.385.136.928.34a4.643,4.643,0,0,1,1.948,1.291,3.454,3.454,0,0,1,.86,2.446v1.223a4.838,4.838,0,0,1-.158,1.336,5.17,5.17,0,0,1-.929,1.585,3.192,3.192,0,0,1-2.649,1,3.23,3.23,0,0,1-2.853-1.268,4.639,4.639,0,0,1-.883-2.649v-.543h2.2Z" transform="translate(-742.66 -402.344)" fill="#fff"/>
    <path id="path2320" d="M756.605,416.043a3.916,3.916,0,0,1-1.291,1.246,3.209,3.209,0,0,1-1.721.476,3.449,3.449,0,0,1-.951-.136,5.38,5.38,0,0,1-.86-.34,4.368,4.368,0,0,1-.725-.5,2.168,2.168,0,0,1-.476-.611,4.766,4.766,0,0,1-.453-1.11,5.441,5.441,0,0,1-.091-1.019V402.456h2.174v11.889l.045.226a1.852,1.852,0,0,0,.34.634,1.173,1.173,0,0,0,1.019.408,1.089,1.089,0,0,0,.974-.476,1.889,1.889,0,0,0,.34-1.087V402.456H757.1V414.05a4.686,4.686,0,0,1-.113,1.042,3.226,3.226,0,0,1-.385.951Z" transform="translate(-741.088 -402.32)" fill="#fff"/>
    <path id="path2322" d="M758.875,413.87v.385a1.394,1.394,0,0,0,.023.272,2.068,2.068,0,0,0,.34.657,1.288,1.288,0,0,0,1.132.453,1.943,1.943,0,0,0,.838-.181,1.363,1.363,0,0,0,.566-.521,1.261,1.261,0,0,0,.158-.476,2.094,2.094,0,0,0,.045-.408v-1.472a1.382,1.382,0,0,0-.181-.77,2.319,2.319,0,0,0-.815-.657,14.578,14.578,0,0,0-1.54-.634,4.356,4.356,0,0,1-1.857-1.291,3.6,3.6,0,0,1-.747-2.4v-.679a3.765,3.765,0,0,1,1.042-2.672,3.412,3.412,0,0,1,2.582-1.132,3.45,3.45,0,0,1,2.627,1.11,3.749,3.749,0,0,1,1.064,2.695v.679h-2.174v-.679a1.789,1.789,0,0,0-.023-.294,1.279,1.279,0,0,0-.023-.249.954.954,0,0,0-.113-.272q-.091-.158-.249-.385a1.207,1.207,0,0,0-1.064-.453,1.4,1.4,0,0,0-1.087.476,1.747,1.747,0,0,0-.408,1.178v.883a1.632,1.632,0,0,0,.136.725,2.086,2.086,0,0,0,.725.566q.181.091.543.249.385.136.929.34a4.645,4.645,0,0,1,1.947,1.291,3.455,3.455,0,0,1,.861,2.446v1.223a4.836,4.836,0,0,1-.158,1.336,5.173,5.173,0,0,1-.929,1.585,3.192,3.192,0,0,1-2.65,1,3.23,3.23,0,0,1-2.853-1.268,4.638,4.638,0,0,1-.883-2.649v-.543h2.2Z" transform="translate(-739.673 -402.344)" fill="#fff"/>
    <path id="path2324" d="M765.7,417.628V404.471h-2.559v-2.015h7.314v2.015h-2.6v13.157Z" transform="translate(-738.295 -402.32)" fill="#fff"/>
    <path id="path2326" d="M768.253,417.628l3.4-15.172h1.88l3.4,15.172h-2.333l-.611-3.261h-2.808l-.634,3.261Zm3.306-5.276H773.6l-1.019-5.525Z" transform="translate(-737.206 -402.32)" fill="#fff"/>
    <path id="path2328" d="M776.314,417.628V402.456h2.151v15.172Z" transform="translate(-735.488 -402.32)" fill="#fff"/>
    <path id="path2330" d="M784.976,417.628l-3.374-9.217v9.217h-2.174V402.456h2.061l3.352,9.194v-9.194h2.174v15.172Z" transform="translate(-734.824 -402.32)" fill="#fff"/>
    <path id="path2332" d="M785.955,417.628l3.4-15.172h1.88l3.4,15.172h-2.332l-.611-3.261h-2.808l-.634,3.261Zm3.306-5.276H791.3l-1.019-5.525Z" transform="translate(-733.433 -402.32)" fill="#fff"/>
    <path id="path2334" d="M797.352,402.456a2.988,2.988,0,0,1,1.313.294,4.983,4.983,0,0,1,1.381,1.019,3.031,3.031,0,0,1,.747,2.265v1.155a2.511,2.511,0,0,1-1.381,2.446,2.738,2.738,0,0,1,1.381,2.536v1.766a3.589,3.589,0,0,1-1.042,2.649,3.514,3.514,0,0,1-2.627,1.042h-3.352V402.456Zm1.291,4.506v-.928a1.5,1.5,0,0,0-.408-1.11,1.427,1.427,0,0,0-1.087-.43h-1.223v4.189h1.291a1.27,1.27,0,0,0,1.087-.453,2.138,2.138,0,0,0,.34-1.268Zm0,6.975v-1.766a1.531,1.531,0,0,0-.408-1.132,1.383,1.383,0,0,0-1.087-.43h-1.223v4.869h1.245a1.4,1.4,0,0,0,1.064-.43A1.6,1.6,0,0,0,798.643,413.937Z" transform="translate(-731.767 -402.32)" fill="#fff"/>
    <path id="path2336" d="M806.97,417.628h-6.477V402.456h2.174v13h4.3Z" transform="translate(-730.334 -402.32)" fill="#fff"/>
    <path id="path2338" d="M812.836,415.454v2.174h-6.5V402.456h6.5v1.993h-4.348v4.484h3.8v2.061h-3.8v4.461Z" transform="translate(-729.089 -402.32)" fill="#fff"/>
    <path id="path2340" d="M821.025,413.825a7.379,7.379,0,0,1-.091,1.245,2.867,2.867,0,0,1-.453,1.132,3.2,3.2,0,0,1-.521.611,3.941,3.941,0,0,1-.679.5,4.168,4.168,0,0,1-.792.34,2.775,2.775,0,0,1-.838.136,4,4,0,0,1-1.857-.43,2.919,2.919,0,0,1-1.2-1.087,4.012,4.012,0,0,1-.5-1.223,7.746,7.746,0,0,1-.091-1.223v-7.813a5.131,5.131,0,0,1,.113-1.132,3.574,3.574,0,0,1,.544-1.11,3.277,3.277,0,0,1,1.155-1,3.087,3.087,0,0,1,1.563-.43,3.561,3.561,0,0,1,3.646,3.668v.815h-2.151v-.815a1.6,1.6,0,0,0-.362-1.064,1.22,1.22,0,0,0-1.019-.43,1.233,1.233,0,0,0-1,.43,1.664,1.664,0,0,0-.34,1.064v8.4a1.982,1.982,0,0,0,.317.77,1.182,1.182,0,0,0,1.042.453,1.1,1.1,0,0,0,1.019-.408,2.551,2.551,0,0,0,.294-.589,2.607,2.607,0,0,0,.045-.543v-.77h2.151Z" transform="translate(-727.455 -402.344)" fill="#fff"/>
    <path id="path2342" d="M820.853,417.628V402.456H823v15.172Z" transform="translate(-725.996 -402.32)" fill="#fff"/>
    <path id="path2344" d="M825.975,417.628V404.471h-2.559v-2.015h7.314v2.015h-2.6v13.157Z" transform="translate(-725.449 -402.32)" fill="#fff"/>
    <path id="path2346" d="M830.2,417.628V402.456h2.151v15.172Z" transform="translate(-724.002 -402.32)" fill="#fff"/>
    <path id="path2348" d="M839.454,415.454v2.174h-6.5V402.456h6.5v1.993h-4.348v4.484h3.8v2.061h-3.8v4.461Z" transform="translate(-723.416 -402.32)" fill="#fff"/>
    <path id="path2350" d="M841.062,413.87v.385a1.4,1.4,0,0,0,.023.272,2.075,2.075,0,0,0,.34.657,1.288,1.288,0,0,0,1.132.453,1.943,1.943,0,0,0,.838-.181,1.362,1.362,0,0,0,.566-.521,1.263,1.263,0,0,0,.158-.476,2.107,2.107,0,0,0,.045-.408v-1.472a1.383,1.383,0,0,0-.181-.77,2.317,2.317,0,0,0-.815-.657,14.558,14.558,0,0,0-1.54-.634,4.354,4.354,0,0,1-1.857-1.291,3.6,3.6,0,0,1-.747-2.4v-.679a3.765,3.765,0,0,1,1.042-2.672,3.412,3.412,0,0,1,2.582-1.132,3.45,3.45,0,0,1,2.627,1.11,3.749,3.749,0,0,1,1.064,2.695v.679h-2.174v-.679a1.8,1.8,0,0,0-.023-.294,1.269,1.269,0,0,0-.023-.249.953.953,0,0,0-.113-.272q-.091-.158-.249-.385a1.207,1.207,0,0,0-1.064-.453,1.4,1.4,0,0,0-1.087.476,1.746,1.746,0,0,0-.408,1.178v.883a1.633,1.633,0,0,0,.136.725,2.086,2.086,0,0,0,.725.566q.181.091.543.249.385.136.928.34a4.645,4.645,0,0,1,1.948,1.291,3.455,3.455,0,0,1,.86,2.446v1.223a4.838,4.838,0,0,1-.158,1.336,5.169,5.169,0,0,1-.928,1.585,3.192,3.192,0,0,1-2.649,1,3.23,3.23,0,0,1-2.853-1.268,4.638,4.638,0,0,1-.883-2.649v-.543h2.2Z" transform="translate(-722.156 -402.344)" fill="#fff"/>
    <path id="path2352" d="M742.677,434.875l3.4-15.172h1.879l3.4,15.172h-2.332l-.612-3.261H745.6l-.634,3.261Zm3.306-5.276h2.038L747,424.073Z" transform="translate(-742.657 -398.644)" fill="#fff"/>
    <path id="path2354" d="M756.045,434.875l-3.374-9.216v9.216H750.5V419.7h2.061l3.352,9.194V419.7h2.174v15.172Z" transform="translate(-740.99 -398.644)" fill="#fff"/>
    <path id="path2356" d="M761.3,419.7a3.425,3.425,0,0,1,2.514,1.042,3.316,3.316,0,0,1,1.064,2.491v7.88a3.72,3.72,0,0,1-1.019,2.717,3.514,3.514,0,0,1-2.627,1.042h-3.374V419.7Zm1.427,11.413v-7.88a1.378,1.378,0,0,0-.476-1.064,1.55,1.55,0,0,0-1.11-.43h-1.132V432.86h1.064q1.653,0,1.653-1.744Z" transform="translate(-739.422 -398.644)" fill="#fff"/>
    <path id="path2358" d="M773.729,431.072a7.372,7.372,0,0,1-.091,1.245,2.863,2.863,0,0,1-.453,1.132,3.209,3.209,0,0,1-.521.611,3.95,3.95,0,0,1-.679.5,4.17,4.17,0,0,1-.793.34,2.774,2.774,0,0,1-.838.136,4,4,0,0,1-1.857-.43,2.92,2.92,0,0,1-1.2-1.087,4.019,4.019,0,0,1-.5-1.223,7.769,7.769,0,0,1-.091-1.223v-7.813a5.145,5.145,0,0,1,.113-1.132,3.578,3.578,0,0,1,.544-1.11,3.28,3.28,0,0,1,1.155-1,3.088,3.088,0,0,1,1.563-.43,3.561,3.561,0,0,1,3.646,3.669v.815h-2.151v-.815a1.6,1.6,0,0,0-.362-1.064,1.219,1.219,0,0,0-1.019-.43,1.233,1.233,0,0,0-1,.43,1.664,1.664,0,0,0-.34,1.064v8.4a1.984,1.984,0,0,0,.317.77,1.181,1.181,0,0,0,1.042.453,1.1,1.1,0,0,0,1.019-.408,2.554,2.554,0,0,0,.294-.589,2.613,2.613,0,0,0,.045-.544v-.77h2.151Z" transform="translate(-737.535 -398.668)" fill="#fff"/>
    <path id="path2360" d="M774.324,421.153a3.653,3.653,0,0,1,1.313-1.132,3.55,3.55,0,0,1,1.676-.43,3.634,3.634,0,0,1,1.562.34,3.5,3.5,0,0,1,1.246.928,3.306,3.306,0,0,1,.679,1.223,4.686,4.686,0,0,1,.181,1.336v7.722a4.776,4.776,0,0,1-.136,1.2,3.69,3.69,0,0,1-1.744,2.242,3.331,3.331,0,0,1-1.721.453,3.939,3.939,0,0,1-1.042-.136,4.674,4.674,0,0,1-.928-.408,4.22,4.22,0,0,1-.77-.566,2.794,2.794,0,0,1-.5-.657,4.351,4.351,0,0,1-.408-1.132,6.449,6.449,0,0,1-.068-1v-7.722a4.778,4.778,0,0,1,.136-1.2,3.66,3.66,0,0,1,.521-1.064Zm4.212,1.2a1.351,1.351,0,0,0-1.178-.634,1.507,1.507,0,0,0-.77.227,1.342,1.342,0,0,0-.521.476,1.92,1.92,0,0,0-.181.543,2.866,2.866,0,0,0-.045.453v7.971a1.528,1.528,0,0,0,.023.249,2.088,2.088,0,0,0,.362.747,1.3,1.3,0,0,0,1.132.476,1.435,1.435,0,0,0,.725-.181,1.256,1.256,0,0,0,.476-.453,1.653,1.653,0,0,0,.2-.5,3.11,3.11,0,0,0,.045-.589v-7.722a3,3,0,0,0-.045-.634.915.915,0,0,0-.226-.43Z" transform="translate(-736.052 -398.668)" fill="#fff"/>
    <path id="path2362" d="M787.989,434.875v-9.239l-2.174,6.476h-1.087l-2.151-6.476v9.239H780.4V419.7h2.038l2.876,8.084,2.831-8.084h1.993v15.172Z" transform="translate(-734.616 -398.644)" fill="#fff"/>
    <path id="path2364" d="M796.734,434.875v-9.239l-2.174,6.476h-1.087l-2.151-6.476v9.239h-2.174V419.7h2.038l2.876,8.084,2.831-8.084h1.993v15.172Z" transform="translate(-732.753 -398.644)" fill="#fff"/>
    <path id="path2366" d="M805.064,433.29a3.915,3.915,0,0,1-1.291,1.245,3.209,3.209,0,0,1-1.721.476,3.444,3.444,0,0,1-.951-.136,5.368,5.368,0,0,1-.861-.34,4.37,4.37,0,0,1-.725-.5,2.169,2.169,0,0,1-.476-.611,4.771,4.771,0,0,1-.453-1.11,5.446,5.446,0,0,1-.091-1.019V419.7h2.174v11.889l.045.226a1.856,1.856,0,0,0,.34.634,1.174,1.174,0,0,0,1.019.408,1.089,1.089,0,0,0,.974-.476,1.889,1.889,0,0,0,.34-1.087V419.7h2.174V431.3a4.686,4.686,0,0,1-.113,1.042,3.226,3.226,0,0,1-.385.951Z" transform="translate(-730.76 -398.644)" fill="#fff"/>
    <path id="path2368" d="M810.928,434.875l-3.374-9.216v9.216H805.38V419.7h2.061l3.352,9.194V419.7h2.174v15.172Z" transform="translate(-729.293 -398.644)" fill="#fff"/>
    <path id="path2370" d="M812.616,434.875V419.7h2.151v15.172Z" transform="translate(-727.751 -398.644)" fill="#fff"/>
    <path id="path2372" d="M818.1,434.875V421.718h-2.559V419.7h7.314v2.015h-2.6v13.157Z" transform="translate(-727.127 -398.644)" fill="#fff"/>
    <path id="path2374" d="M821.967,434.875V419.7h2.151v15.172Z" transform="translate(-725.758 -398.644)" fill="#fff"/>
    <path id="path2376" d="M831.339,432.7v2.174h-6.5V419.7h6.5V421.7h-4.348v4.484h3.8v2.061h-3.8V432.7Z" transform="translate(-725.146 -398.644)" fill="#fff"/>
    <path id="path2378" d="M832.705,431.117v.385a1.4,1.4,0,0,0,.023.272,2.071,2.071,0,0,0,.34.657,1.287,1.287,0,0,0,1.132.453,1.943,1.943,0,0,0,.838-.181,1.362,1.362,0,0,0,.566-.521,1.262,1.262,0,0,0,.158-.476,2.1,2.1,0,0,0,.045-.408v-1.472a1.382,1.382,0,0,0-.181-.77,2.315,2.315,0,0,0-.815-.657,14.557,14.557,0,0,0-1.54-.634,4.356,4.356,0,0,1-1.857-1.291,3.6,3.6,0,0,1-.747-2.4V423.4a3.765,3.765,0,0,1,1.042-2.672,3.412,3.412,0,0,1,2.582-1.132,3.449,3.449,0,0,1,2.627,1.11,3.749,3.749,0,0,1,1.064,2.695v.679h-2.174V423.4a1.8,1.8,0,0,0-.023-.294,1.269,1.269,0,0,0-.023-.249.95.95,0,0,0-.113-.272q-.091-.158-.249-.385a1.208,1.208,0,0,0-1.064-.453,1.4,1.4,0,0,0-1.087.476,1.746,1.746,0,0,0-.408,1.178v.883a1.632,1.632,0,0,0,.136.725,2.086,2.086,0,0,0,.725.566q.181.091.544.249.385.136.928.34a4.643,4.643,0,0,1,1.948,1.291,3.455,3.455,0,0,1,.86,2.446v1.223a4.841,4.841,0,0,1-.158,1.336,5.175,5.175,0,0,1-.929,1.585,3.192,3.192,0,0,1-2.649,1,3.23,3.23,0,0,1-2.853-1.268,4.639,4.639,0,0,1-.883-2.649v-.544h2.2Z" transform="translate(-723.938 -398.668)" fill="#fff"/>
  </g>
  <g id="text6075-0-6-9-2-5-9-0-9-4-2" transform="translate(12.813 14.954)">
    <path id="path2381" d="M717.577,438.36V407.474l-5.2,3.9v-5.527l5.2-3.793h5.148v36.3Z" transform="translate(-712.375 -402.055)" fill="#fff"/>
    <path id="path2383" d="M728.924,438.36V407.474l-5.2,3.9v-5.527l5.2-3.793h5.148v36.3Z" transform="translate(-709.957 -402.055)" fill="#fff"/>
  </g>
  <path id="path7902-0" d="M742.048,495.923,754.77,512.63c.473.621.344,1.356-.667,1.356H728.16c-1.011,0-1.14-.735-.667-1.356l12.722-16.708c.616-.809,1.225-.8,1.833,0ZM821.7,502.2h25.722a1.085,1.085,0,0,1,1.087,1.088v4.557a1.085,1.085,0,0,1-1.087,1.087H821.7a1.085,1.085,0,0,1-1.087-1.087v-4.557A1.085,1.085,0,0,1,821.7,502.2Zm0,8.579a1.085,1.085,0,0,0-1.088,1.088v26.184a1.085,1.085,0,0,0,1.088,1.088h25.722a1.085,1.085,0,0,0,1.088-1.088V511.865a1.085,1.085,0,0,0-1.088-1.088Zm3.765,3.952h6.573a1.085,1.085,0,0,1,1.088,1.088v3.047a1.085,1.085,0,0,1-1.088,1.087h-6.573a1.083,1.083,0,0,1-1.085-1.087v-3.047A1.083,1.083,0,0,1,825.466,514.729Zm12.084,0h6.57a1.085,1.085,0,0,1,1.087,1.088v3.047a1.085,1.085,0,0,1-1.087,1.087h-6.57a1.085,1.085,0,0,1-1.088-1.087v-3.047A1.085,1.085,0,0,1,837.55,514.729Zm-12.084,8.942h6.573a1.085,1.085,0,0,1,1.088,1.088V527.8a1.085,1.085,0,0,1-1.088,1.088h-6.573a1.083,1.083,0,0,1-1.085-1.088v-3.045A1.083,1.083,0,0,1,825.466,523.671Zm12.084,0h6.57a1.085,1.085,0,0,1,1.087,1.088V527.8a1.085,1.085,0,0,1-1.087,1.088h-6.57a1.085,1.085,0,0,1-1.088-1.088v-3.045A1.085,1.085,0,0,1,837.55,523.671Zm-77.673-75.6a1.085,1.085,0,0,0-1.088,1.087v88.895a1.085,1.085,0,0,0,1.088,1.088h25.118a1.085,1.085,0,0,0,1.088-1.088V449.154a1.085,1.085,0,0,0-1.088-1.087Zm4.907,12.437h3.836a1.085,1.085,0,0,1,1.088,1.088v4.625a1.085,1.085,0,0,1-1.088,1.088h-3.836a1.085,1.085,0,0,1-1.088-1.088v-4.625A1.085,1.085,0,0,1,764.783,460.5Zm11.721,0h3.836a1.085,1.085,0,0,1,1.088,1.088v4.625a1.085,1.085,0,0,1-1.088,1.088H776.5a1.085,1.085,0,0,1-1.088-1.088v-4.625A1.085,1.085,0,0,1,776.5,460.5Zm-11.721,15.392h3.836a1.085,1.085,0,0,1,1.088,1.088v4.625a1.085,1.085,0,0,1-1.088,1.087h-3.836a1.085,1.085,0,0,1-1.088-1.087v-4.625A1.085,1.085,0,0,1,764.783,475.895Zm11.721,0h3.836a1.085,1.085,0,0,1,1.088,1.088v4.625a1.085,1.085,0,0,1-1.088,1.087H776.5a1.085,1.085,0,0,1-1.088-1.087v-4.625A1.085,1.085,0,0,1,776.5,475.895Zm-11.721,15.392h3.836a1.085,1.085,0,0,1,1.088,1.088V497a1.085,1.085,0,0,1-1.088,1.088h-3.836A1.085,1.085,0,0,1,763.7,497v-4.625A1.085,1.085,0,0,1,764.783,491.286Zm11.721,0h3.836a1.085,1.085,0,0,1,1.088,1.088V497a1.085,1.085,0,0,1-1.088,1.088H776.5A1.085,1.085,0,0,1,775.417,497v-4.625A1.085,1.085,0,0,1,776.5,491.286Zm-11.721,15.392h3.836a1.085,1.085,0,0,1,1.088,1.088v4.625a1.085,1.085,0,0,1-1.088,1.088h-3.836a1.085,1.085,0,0,1-1.088-1.088v-4.625A1.085,1.085,0,0,1,764.783,506.678Zm11.721,0h3.836a1.085,1.085,0,0,1,1.088,1.088v4.625a1.085,1.085,0,0,1-1.088,1.088H776.5a1.085,1.085,0,0,1-1.088-1.088v-4.625A1.085,1.085,0,0,1,776.5,506.678ZM764.783,522.07h3.836a1.085,1.085,0,0,1,1.088,1.088v4.627a1.085,1.085,0,0,1-1.088,1.088h-3.836a1.085,1.085,0,0,1-1.088-1.088v-4.627A1.085,1.085,0,0,1,764.783,522.07Zm11.721,0h3.836a1.085,1.085,0,0,1,1.088,1.088v4.627a1.085,1.085,0,0,1-1.088,1.088H776.5a1.085,1.085,0,0,1-1.088-1.088v-4.627A1.085,1.085,0,0,1,776.5,522.07Zm13.861-22.96v38.939a1.085,1.085,0,0,0,1.088,1.088h24.755a1.085,1.085,0,0,0,1.088-1.088v-71.98c0-.6-.8-1.436-1.752-.226l-24.227,30.682a3.183,3.183,0,0,0-.952,2.585Zm23.215-24.357c.44,0,.514,1.053.514,1.5v6.551a1.085,1.085,0,0,1-1.088,1.088h-5.061c-.644,0-1.743-.274-1.088-1.088l6.149-7.639C813.247,474.873,813.434,474.754,813.581,474.753Zm-7.144,12.863h6.57A1.085,1.085,0,0,1,814.1,488.7v3.045a1.085,1.085,0,0,1-1.088,1.088h-6.57a1.085,1.085,0,0,1-1.088-1.088V488.7A1.085,1.085,0,0,1,806.437,487.616Zm-4.964,2.4c.432-.089.538.9.538,1.588v9.326a1.085,1.085,0,0,1-1.088,1.087h-6.229c-.6,0-1.516-.478-1.088-1.087l7.317-10.413C801.148,490.2,801.329,490.051,801.473,490.021Zm4.964,6.509h6.57a1.085,1.085,0,0,1,1.088,1.088v3.047a1.085,1.085,0,0,1-1.088,1.088h-6.57a1.085,1.085,0,0,1-1.088-1.088v-3.047A1.085,1.085,0,0,1,806.437,496.53Zm-11.743,8.942h6.229a1.085,1.085,0,0,1,1.088,1.088v3.047a1.085,1.085,0,0,1-1.088,1.088h-6.229a1.085,1.085,0,0,1-1.088-1.088V506.56A1.085,1.085,0,0,1,794.694,505.472Zm11.743,0h6.57a1.085,1.085,0,0,1,1.088,1.088v3.047a1.085,1.085,0,0,1-1.088,1.088h-6.57a1.085,1.085,0,0,1-1.088-1.088V506.56A1.085,1.085,0,0,1,806.437,505.472Zm-11.743,9.257h6.229a1.085,1.085,0,0,1,1.088,1.088v3.047a1.085,1.085,0,0,1-1.088,1.087h-6.229a1.085,1.085,0,0,1-1.088-1.087v-3.047A1.085,1.085,0,0,1,794.694,514.729Zm11.743,0h6.57a1.085,1.085,0,0,1,1.088,1.088v3.047a1.085,1.085,0,0,1-1.088,1.087h-6.57a1.085,1.085,0,0,1-1.088-1.087v-3.047A1.085,1.085,0,0,1,806.437,514.729Zm-11.743,8.942h6.229a1.085,1.085,0,0,1,1.088,1.088V527.8a1.085,1.085,0,0,1-1.088,1.088h-6.229a1.085,1.085,0,0,1-1.088-1.088v-3.045A1.085,1.085,0,0,1,794.694,523.671Zm11.743,0h6.57a1.085,1.085,0,0,1,1.088,1.088V527.8a1.085,1.085,0,0,1-1.088,1.088h-6.57a1.085,1.085,0,0,1-1.088-1.088v-3.045A1.085,1.085,0,0,1,806.437,523.671Zm-78.621-7.215a1.085,1.085,0,0,0-1.088,1.088v20.5a1.085,1.085,0,0,0,1.088,1.088H736.6c0-.04-.012-.08-.012-.121V527.078a1.688,1.688,0,0,1,1.692-1.692H743.8a1.688,1.688,0,0,1,1.692,1.692v11.937c0,.041-.008.081-.012.121h8.3a1.085,1.085,0,0,0,1.087-1.088v-20.5a1.085,1.085,0,0,0-1.087-1.088Z" transform="translate(-696.503 -377.295)" fill="#fff"/>
</svg>
