<svg xmlns="http://www.w3.org/2000/svg" width="51.526" height="51.526" viewBox="0 0 51.526 51.526">
  <g id="Group_6404" data-name="Group 6404" transform="translate(-391.237 -2468.237)">
    <g id="water" transform="translate(391.237 2468.237)">
      <g id="Group_6323" data-name="Group 6323" transform="translate(4.599 0)">
        <g id="Group_6322" data-name="Group 6322">
          <path id="Path_6796" data-name="Path 6796" d="M66.864,0A25.692,25.692,0,0,0,50.923,5.656L48.448,3.875a1.526,1.526,0,0,0-2.385,1.359L45.7,15.649a1.492,1.492,0,0,0,2.023,1.3c4.1-1.3,10.952-3.585,10.6-3.472a1.549,1.549,0,0,0,1-1.238,1.6,1.6,0,0,0-.664-1.449l-2.325-1.54a19.8,19.8,0,0,1,10.537-3.11,19.364,19.364,0,0,1,5.8.893,4.409,4.409,0,0,1,.557-3.291,4.545,4.545,0,0,1,2.615-1.976A25.434,25.434,0,0,0,66.864,0Z" transform="translate(-45.7 0)" fill="#4cbeec"/>
        </g>
      </g>
      <g id="Group_6325" data-name="Group 6325" transform="translate(0 16.8)">
        <g id="Group_6324" data-name="Group 6324">
          <path id="Path_6797" data-name="Path 6797" d="M16.947,195.043c-1.3-4.1-3.585-10.952-3.472-10.6a1.549,1.549,0,0,0-1.238-1,1.6,1.6,0,0,0-1.449.664l-1.54,2.325A19.8,19.8,0,0,1,6.139,175.9a19.366,19.366,0,0,1,.89-5.791,4.472,4.472,0,0,1-5.267-3.172A25.432,25.432,0,0,0,0,175.9a25.692,25.692,0,0,0,5.656,15.941l-1.781,2.475A1.526,1.526,0,0,0,5.233,196.7l10.416.362A1.492,1.492,0,0,0,16.947,195.043Z" transform="translate(0 -166.939)" fill="#4cbeec"/>
        </g>
      </g>
      <g id="Group_6327" data-name="Group 6327" transform="translate(16.792 34.469)">
        <g id="Group_6326" data-name="Group 6326">
          <path id="Path_6798" data-name="Path 6798" d="M196.994,343.915a1.492,1.492,0,0,0-2.023-1.3c-4.1,1.3-10.952,3.585-10.6,3.472a1.549,1.549,0,0,0-1,1.238,1.6,1.6,0,0,0,.664,1.449l2.325,1.54a19.8,19.8,0,0,1-10.537,3.11,19.369,19.369,0,0,1-5.8-.893,4.414,4.414,0,0,1-.558,3.293,4.539,4.539,0,0,1-2.613,1.974,25.436,25.436,0,0,0,8.971,1.764,25.692,25.692,0,0,0,15.941-5.656l2.475,1.781a1.526,1.526,0,0,0,2.385-1.359Z" transform="translate(-166.859 -342.507)" fill="#4cbeec"/>
        </g>
      </g>
      <g id="Group_6329" data-name="Group 6329" transform="translate(34.469 4.599)">
        <g id="Group_6328" data-name="Group 6328">
          <path id="Path_6799" data-name="Path 6799" d="M353.907,50.923l1.781-2.475a1.526,1.526,0,0,0-1.359-2.385L343.914,45.7a1.492,1.492,0,0,0-1.3,2.023c1.3,4.1,3.585,10.952,3.472,10.6a1.549,1.549,0,0,0,1.238,1,1.6,1.6,0,0,0,1.449-.664l1.54-2.325a19.8,19.8,0,0,1,3.11,10.537,19.366,19.366,0,0,1-.89,5.791,4.505,4.505,0,0,1,.941-.1,4.639,4.639,0,0,1,4.426,3.275,25.36,25.36,0,0,0,1.661-8.963A25.692,25.692,0,0,0,353.907,50.923Z" transform="translate(-342.506 -45.7)" fill="#4cbeec"/>
        </g>
      </g>
    </g>
    <text id="_" data-name="$" transform="translate(408 2505)" fill="#4cbeec" font-size="29" font-family="SegoeUI-Bold, Segoe UI" font-weight="700" letter-spacing="0.03em"><tspan x="0" y="0">$</tspan></text>
  </g>
</svg>
