<svg id="Group_6307" data-name="Group 6307" xmlns="http://www.w3.org/2000/svg" width="179.309" height="179.602" viewBox="0 0 179.309 179.602">
  <path id="rect8528-63-2-4-3-6-0-4" d="M374.867,389.728H552.174a1,1,0,0,1,1,1v177.6a1,1,0,0,1-1,1H374.867a1,1,0,0,1-1-1v-177.6A1,1,0,0,1,374.867,389.728Z" transform="translate(-373.866 -389.728)" fill="#f36d25" fill-rule="evenodd"/>
  <g id="text6065-3-2-9-6-6-5-0-0" transform="translate(42.478 15.275)">
    <path id="path2197" d="M409.538,417.6V402.456h2.147V417.6Z" transform="translate(-408.825 -402.32)" fill="#fff"/>
    <path id="path2199" d="M417.555,417.6l-3.368-9.2v9.2h-2.17V402.456h2.057l3.345,9.176v-9.176h2.17V417.6Z" transform="translate(-408.302 -402.32)" fill="#fff"/>
    <path id="path2201" d="M422.588,402.456a3.419,3.419,0,0,1,2.509,1.04,3.31,3.31,0,0,1,1.062,2.486v7.865a3.713,3.713,0,0,1-1.017,2.712,3.507,3.507,0,0,1-2.622,1.04h-3.368V402.456Zm1.424,11.391v-7.865a1.375,1.375,0,0,0-.475-1.062,1.548,1.548,0,0,0-1.107-.429H421.3v11.1h1.062q1.65,0,1.65-1.74Z" transform="translate(-406.798 -402.32)" fill="#fff"/>
    <path id="path2203" d="M432.521,416.017a3.91,3.91,0,0,1-1.288,1.243,3.2,3.2,0,0,1-1.718.475,3.442,3.442,0,0,1-.949-.136,5.372,5.372,0,0,1-.859-.339,4.358,4.358,0,0,1-.723-.5,2.165,2.165,0,0,1-.475-.61,4.76,4.76,0,0,1-.452-1.107,5.436,5.436,0,0,1-.09-1.017V402.456h2.17v11.866l.045.226a1.852,1.852,0,0,0,.339.633,1.171,1.171,0,0,0,1.017.407,1.087,1.087,0,0,0,.972-.475,1.886,1.886,0,0,0,.339-1.085V402.456h2.17v11.572a4.681,4.681,0,0,1-.113,1.04,3.221,3.221,0,0,1-.384.949Z" transform="translate(-405.362 -402.32)" fill="#fff"/>
    <path id="path2205" d="M434.677,413.848v.384a1.4,1.4,0,0,0,.023.271,2.069,2.069,0,0,0,.339.655,1.285,1.285,0,0,0,1.13.452,1.939,1.939,0,0,0,.836-.181,1.36,1.36,0,0,0,.565-.52,1.258,1.258,0,0,0,.158-.475,2.1,2.1,0,0,0,.045-.407V412.56a1.38,1.38,0,0,0-.181-.768,2.312,2.312,0,0,0-.814-.655,14.538,14.538,0,0,0-1.537-.633,4.347,4.347,0,0,1-1.853-1.288,3.59,3.59,0,0,1-.746-2.4v-.678a3.758,3.758,0,0,1,1.04-2.667,3.405,3.405,0,0,1,2.577-1.13,3.443,3.443,0,0,1,2.622,1.108,3.742,3.742,0,0,1,1.062,2.69v.678h-2.17v-.678a1.775,1.775,0,0,0-.023-.294,1.267,1.267,0,0,0-.023-.249.953.953,0,0,0-.113-.271q-.09-.158-.249-.384a1.205,1.205,0,0,0-1.062-.452,1.4,1.4,0,0,0-1.085.475,1.743,1.743,0,0,0-.407,1.175v.881a1.628,1.628,0,0,0,.136.723,2.081,2.081,0,0,0,.723.565q.181.09.542.249.384.136.927.339a4.635,4.635,0,0,1,1.944,1.288,3.448,3.448,0,0,1,.859,2.441v1.22a4.826,4.826,0,0,1-.158,1.334,5.159,5.159,0,0,1-.927,1.582,3.186,3.186,0,0,1-2.644.994,3.224,3.224,0,0,1-2.848-1.266,4.631,4.631,0,0,1-.881-2.644v-.542h2.192Z" transform="translate(-403.988 -402.344)" fill="#fff"/>
    <path id="path2207" d="M440.953,417.6V404.467H438.4v-2.011h7.3v2.011h-2.6V417.6Z" transform="translate(-402.741 -402.32)" fill="#fff"/>
    <path id="path2209" d="M444.8,417.6V402.456h3.8a3.371,3.371,0,0,1,2.509,1.04,3.472,3.472,0,0,1,1.04,2.554v1.4a3.555,3.555,0,0,1-1.785,3.209l2.305,6.939h-2.305l-2.034-6.487h-1.356V417.6Zm4.814-8.882a1.314,1.314,0,0,0,.271-.565,2.542,2.542,0,0,0,.091-.7v-1.4a1.631,1.631,0,0,0-.384-1.13,1.346,1.346,0,0,0-1.085-.452h-1.537v4.724h1.514a1.5,1.5,0,0,0,1.13-.475Z" transform="translate(-401.393 -402.32)" fill="#fff"/>
    <path id="path2211" d="M453.54,417.6V411.09l-2.938-8.634h2.26l1.763,5.922,1.785-5.922h2.283l-3.006,8.634V417.6Z" transform="translate(-400.169 -402.32)" fill="#fff"/>
    <path id="path2213" d="M456.195,416.941v-3.752h2.17v2.147Z" transform="translate(-398.99 -400.058)" fill="#fff"/>
    <path id="path2215" d="M460.706,417.6V402.456h2.147V417.6Z" transform="translate(-398.039 -402.32)" fill="#fff"/>
    <path id="path2217" d="M468.935,417.6l-3.368-9.2v9.2H463.4V402.456h2.057l3.345,9.176v-9.176h2.17V417.6Z" transform="translate(-397.472 -402.32)" fill="#fff"/>
    <path id="path2219" d="M475.688,417.6l-3.368-9.2v9.2h-2.17V402.456h2.057l3.345,9.176v-9.176h2.17V417.6Z" transform="translate(-396.048 -402.32)" fill="#fff"/>
    <path id="path2221" d="M477.609,403.9a3.646,3.646,0,0,1,1.311-1.13,3.542,3.542,0,0,1,1.673-.429,3.628,3.628,0,0,1,1.559.339,3.5,3.5,0,0,1,1.243.927,3.294,3.294,0,0,1,.678,1.22,4.678,4.678,0,0,1,.181,1.333v7.707a4.762,4.762,0,0,1-.136,1.2,3.682,3.682,0,0,1-1.74,2.238,3.325,3.325,0,0,1-1.718.452,3.932,3.932,0,0,1-1.04-.136,4.664,4.664,0,0,1-.927-.407,4.217,4.217,0,0,1-.768-.565,2.791,2.791,0,0,1-.5-.655,4.35,4.35,0,0,1-.407-1.13,6.442,6.442,0,0,1-.068-.994v-7.707a4.768,4.768,0,0,1,.136-1.2,3.654,3.654,0,0,1,.52-1.062Zm4.2,1.2a1.348,1.348,0,0,0-1.175-.633,1.5,1.5,0,0,0-.768.226,1.339,1.339,0,0,0-.52.475,1.91,1.91,0,0,0-.181.542,2.838,2.838,0,0,0-.045.452v7.956a1.527,1.527,0,0,0,.023.249,2.091,2.091,0,0,0,.362.746,1.293,1.293,0,0,0,1.13.475,1.432,1.432,0,0,0,.723-.181,1.253,1.253,0,0,0,.475-.452,1.649,1.649,0,0,0,.2-.5,3.1,3.1,0,0,0,.045-.588v-7.707a2.993,2.993,0,0,0-.045-.633.913.913,0,0,0-.226-.429Z" transform="translate(-394.614 -402.344)" fill="#fff"/>
    <path id="path2223" d="M486.29,417.6l-3.1-15.143h2.26l1.763,10.51L489,402.456h2.305L488.143,417.6Z" transform="translate(-393.299 -402.32)" fill="#fff"/>
    <path id="path2225" d="M489.121,417.6l3.39-15.143h1.876l3.39,15.143h-2.328l-.61-3.255h-2.8L491.4,417.6Zm3.3-5.266h2.034l-1.017-5.515Z" transform="translate(-392.05 -402.32)" fill="#fff"/>
    <path id="path2227" d="M497.916,417.6V404.467h-2.554v-2.011h7.3v2.011h-2.6V417.6Z" transform="translate(-390.734 -402.32)" fill="#fff"/>
    <path id="path2229" d="M501.727,417.6V402.456h2.147V417.6Z" transform="translate(-389.393 -402.32)" fill="#fff"/>
    <path id="path2231" d="M504.943,403.9a3.647,3.647,0,0,1,1.311-1.13,3.542,3.542,0,0,1,1.673-.429,3.629,3.629,0,0,1,1.56.339,3.5,3.5,0,0,1,1.243.927,3.3,3.3,0,0,1,.678,1.22,4.673,4.673,0,0,1,.181,1.333v7.707a4.766,4.766,0,0,1-.136,1.2,3.409,3.409,0,0,1-.542,1.153,3.373,3.373,0,0,1-1.2,1.085,3.324,3.324,0,0,1-1.718.452,3.931,3.931,0,0,1-1.04-.136,4.661,4.661,0,0,1-.927-.407,4.212,4.212,0,0,1-.768-.565,2.791,2.791,0,0,1-.5-.655,4.343,4.343,0,0,1-.407-1.13,6.449,6.449,0,0,1-.068-.994v-7.707a4.767,4.767,0,0,1,.136-1.2,3.65,3.65,0,0,1,.52-1.062Zm4.2,1.2a1.348,1.348,0,0,0-1.175-.633,1.5,1.5,0,0,0-.768.226,1.339,1.339,0,0,0-.52.475,1.914,1.914,0,0,0-.181.542,2.845,2.845,0,0,0-.045.452v7.956a1.508,1.508,0,0,0,.023.249,2.09,2.09,0,0,0,.362.746,1.293,1.293,0,0,0,1.13.475,1.432,1.432,0,0,0,.723-.181,1.254,1.254,0,0,0,.475-.452,1.652,1.652,0,0,0,.2-.5,3.1,3.1,0,0,0,.045-.588v-7.707a3,3,0,0,0-.045-.633.914.914,0,0,0-.226-.429Z" transform="translate(-388.853 -402.344)" fill="#fff"/>
    <path id="path2233" d="M516.923,417.6l-3.368-9.2v9.2h-2.17V402.456h2.057l3.345,9.176v-9.176h2.17V417.6Z" transform="translate(-387.357 -402.32)" fill="#fff"/>
    <path id="path2235" d="M408.949,434.846l3.39-15.143h1.876l3.39,15.143h-2.328l-.61-3.255h-2.8l-.633,3.255Zm3.3-5.266h2.034l-1.017-5.515Z" transform="translate(-408.949 -398.685)" fill="#fff"/>
    <path id="path2237" d="M421.762,434.846l-3.368-9.2v9.2h-2.17V419.7h2.057l3.345,9.176V419.7h2.17v15.143Z" transform="translate(-407.415 -398.685)" fill="#fff"/>
    <path id="path2239" d="M426.836,419.7a3.418,3.418,0,0,1,2.509,1.04,3.31,3.31,0,0,1,1.062,2.486v7.865a3.713,3.713,0,0,1-1.017,2.712,3.507,3.507,0,0,1-2.622,1.04H423.4V419.7Zm1.424,11.391v-7.865a1.376,1.376,0,0,0-.475-1.062,1.548,1.548,0,0,0-1.108-.429h-1.13v11.1h1.062Q428.26,432.834,428.26,431.094Z" transform="translate(-405.903 -398.685)" fill="#fff"/>
    <path id="path2241" d="M431.764,434.846V419.7h2.147v15.143Z" transform="translate(-404.14 -398.685)" fill="#fff"/>
    <path id="path2243" d="M439.932,434.846l-3.368-9.2v9.2h-2.17V419.7h2.057l3.345,9.176V419.7h2.17v15.143Z" transform="translate(-403.585 -398.685)" fill="#fff"/>
    <path id="path2245" d="M441.208,434.846V419.7h6.464v2.034h-4.317v4.543h3.774v2.034h-3.774v6.532Z" transform="translate(-402.149 -398.685)" fill="#fff"/>
    <path id="path2247" d="M446.811,434.846V419.7h3.8a3.371,3.371,0,0,1,2.509,1.04,3.472,3.472,0,0,1,1.04,2.554v1.4a3.555,3.555,0,0,1-1.785,3.209l2.305,6.939h-2.305l-2.034-6.487h-1.356v6.487Zm4.814-8.882a1.314,1.314,0,0,0,.271-.565,2.543,2.543,0,0,0,.09-.7v-1.4a1.631,1.631,0,0,0-.384-1.13,1.346,1.346,0,0,0-1.085-.452h-1.537v4.724H450.5a1.5,1.5,0,0,0,1.13-.475Z" transform="translate(-400.968 -398.685)" fill="#fff"/>
    <path id="path2249" d="M453.063,434.846l3.39-15.143h1.876l3.39,15.143h-2.328l-.61-3.255h-2.8l-.633,3.255Zm3.3-5.266H458.4l-1.017-5.515Z" transform="translate(-399.65 -398.685)" fill="#fff"/>
    <path id="path2251" d="M462.046,431.095v.384a1.4,1.4,0,0,0,.023.271,2.065,2.065,0,0,0,.339.655,1.285,1.285,0,0,0,1.13.452,1.94,1.94,0,0,0,.836-.181,1.359,1.359,0,0,0,.565-.52,1.258,1.258,0,0,0,.158-.475,2.1,2.1,0,0,0,.045-.407v-1.469a1.38,1.38,0,0,0-.181-.768,2.311,2.311,0,0,0-.814-.655,14.525,14.525,0,0,0-1.537-.633,4.349,4.349,0,0,1-1.853-1.288,3.591,3.591,0,0,1-.746-2.4v-.678a3.758,3.758,0,0,1,1.04-2.667,3.405,3.405,0,0,1,2.577-1.13,3.443,3.443,0,0,1,2.622,1.107,3.742,3.742,0,0,1,1.062,2.69v.678h-2.17v-.678a1.787,1.787,0,0,0-.023-.294,1.268,1.268,0,0,0-.023-.249.953.953,0,0,0-.113-.271q-.09-.158-.249-.384a1.2,1.2,0,0,0-1.062-.452,1.4,1.4,0,0,0-1.085.475,1.742,1.742,0,0,0-.407,1.175v.881a1.629,1.629,0,0,0,.136.723,2.082,2.082,0,0,0,.723.565q.181.09.542.249.384.136.927.339a4.634,4.634,0,0,1,1.944,1.288,3.448,3.448,0,0,1,.859,2.441v1.221a4.824,4.824,0,0,1-.158,1.333,5.162,5.162,0,0,1-.927,1.582,3.186,3.186,0,0,1-2.644.994,3.224,3.224,0,0,1-2.848-1.266,4.63,4.63,0,0,1-.881-2.644v-.542h2.192Z" transform="translate(-398.219 -398.708)" fill="#fff"/>
    <path id="path2253" d="M468.268,434.846V421.714h-2.554V419.7h7.3v2.012h-2.6v13.131Z" transform="translate(-396.984 -398.685)" fill="#fff"/>
    <path id="path2255" d="M472.059,434.846V419.7h3.8a3.371,3.371,0,0,1,2.509,1.04,3.472,3.472,0,0,1,1.04,2.554v1.4a3.555,3.555,0,0,1-1.785,3.209l2.305,6.939h-2.305l-2.034-6.487h-1.356v6.487Zm4.814-8.882a1.314,1.314,0,0,0,.271-.565,2.545,2.545,0,0,0,.09-.7v-1.4a1.631,1.631,0,0,0-.384-1.13,1.346,1.346,0,0,0-1.085-.452h-1.537v4.724h1.514a1.5,1.5,0,0,0,1.13-.475Z" transform="translate(-395.646 -398.685)" fill="#fff"/>
    <path id="path2257" d="M485.093,433.264a3.906,3.906,0,0,1-1.288,1.243,3.2,3.2,0,0,1-1.718.475,3.437,3.437,0,0,1-.949-.136,5.352,5.352,0,0,1-.859-.339,4.351,4.351,0,0,1-.723-.5,2.165,2.165,0,0,1-.475-.61,4.763,4.763,0,0,1-.452-1.107,5.431,5.431,0,0,1-.091-1.017V419.7h2.17v11.866l.045.226a1.853,1.853,0,0,0,.339.633,1.171,1.171,0,0,0,1.017.407,1.087,1.087,0,0,0,.972-.475,1.886,1.886,0,0,0,.339-1.085V419.7h2.17v11.572a4.683,4.683,0,0,1-.113,1.04,3.222,3.222,0,0,1-.384.949Z" transform="translate(-394.28 -398.685)" fill="#fff"/>
    <path id="path2259" d="M492.376,431.05a7.366,7.366,0,0,1-.09,1.243,2.858,2.858,0,0,1-.452,1.13,3.2,3.2,0,0,1-.52.61,3.945,3.945,0,0,1-.678.5,4.166,4.166,0,0,1-.791.339,2.769,2.769,0,0,1-.836.136,4,4,0,0,1-1.853-.429,2.915,2.915,0,0,1-1.2-1.085,4.009,4.009,0,0,1-.5-1.22,7.729,7.729,0,0,1-.09-1.22v-7.8a5.123,5.123,0,0,1,.113-1.13,3.564,3.564,0,0,1,.542-1.107,3.274,3.274,0,0,1,1.153-.994,3.082,3.082,0,0,1,1.56-.429,3.554,3.554,0,0,1,3.639,3.661v.814h-2.147v-.814a1.593,1.593,0,0,0-.361-1.062,1.217,1.217,0,0,0-1.017-.429,1.231,1.231,0,0,0-.995.429,1.661,1.661,0,0,0-.339,1.062v8.385a1.979,1.979,0,0,0,.316.768,1.179,1.179,0,0,0,1.04.452,1.1,1.1,0,0,0,1.017-.407,2.546,2.546,0,0,0,.294-.588,2.6,2.6,0,0,0,.045-.542v-.768h2.147Z" transform="translate(-392.84 -398.708)" fill="#fff"/>
    <path id="path2261" d="M493.857,434.846V421.714H491.3V419.7h7.3v2.012H496v13.131Z" transform="translate(-391.59 -398.685)" fill="#fff"/>
    <path id="path2263" d="M504.162,433.264a3.906,3.906,0,0,1-1.288,1.243,3.2,3.2,0,0,1-1.718.475,3.437,3.437,0,0,1-.949-.136,5.352,5.352,0,0,1-.859-.339,4.36,4.36,0,0,1-.723-.5,2.169,2.169,0,0,1-.475-.61,4.763,4.763,0,0,1-.452-1.107,5.431,5.431,0,0,1-.09-1.017V419.7h2.17v11.866l.045.226a1.852,1.852,0,0,0,.339.633,1.172,1.172,0,0,0,1.017.407,1.087,1.087,0,0,0,.972-.475,1.886,1.886,0,0,0,.339-1.085V419.7h2.17v11.572a4.683,4.683,0,0,1-.113,1.04,3.224,3.224,0,0,1-.384.949Z" transform="translate(-390.261 -398.685)" fill="#fff"/>
    <path id="path2265" d="M504.291,434.846V419.7h3.8a3.371,3.371,0,0,1,2.509,1.04,3.472,3.472,0,0,1,1.04,2.554v1.4a3.555,3.555,0,0,1-1.786,3.209l2.305,6.939h-2.305l-2.034-6.487h-1.356v6.487Zm4.814-8.882a1.315,1.315,0,0,0,.271-.565,2.547,2.547,0,0,0,.09-.7v-1.4a1.631,1.631,0,0,0-.384-1.13,1.346,1.346,0,0,0-1.085-.452h-1.537v4.724h1.514a1.5,1.5,0,0,0,1.13-.475Z" transform="translate(-388.852 -398.685)" fill="#fff"/>
    <path id="path2267" d="M517.377,432.676v2.17h-6.487V419.7h6.487v1.989h-4.339v4.475h3.8v2.057h-3.8v4.453Z" transform="translate(-387.461 -398.685)" fill="#fff"/>
  </g>
  <g id="text6075-0-6-9-2-5-9-0-9" transform="translate(17.905 14.601)">
    <path id="path2270" d="M389.2,420.013a5.036,5.036,0,0,1-.487-1.406q-.054-.7-.054-2.055V409.2a5.924,5.924,0,0,1,.379-2.163,10.8,10.8,0,0,1,.649-1.3q.487-.757,1.244-1.839,1.514-2.109,5.408-2.109a6.869,6.869,0,0,1,5.679,2.488,8.332,8.332,0,0,1,2.109,5.624v5.895a11.04,11.04,0,0,1-.865,4.218l-6.814,18.334h-5.895L396.6,423.1a10.412,10.412,0,0,1-2.163.324,5.873,5.873,0,0,1-3.191-.919,5.725,5.725,0,0,1-2.055-2.488Zm7.3-13.142a2.226,2.226,0,0,0-1.947.919,3.415,3.415,0,0,0-.649,2.109v5.895a3.4,3.4,0,0,0,.7,2.217,2.493,2.493,0,0,0,2.055.865,1.928,1.928,0,0,0,1.731-.811,3.935,3.935,0,0,0,.595-2.271V409.9a3.578,3.578,0,0,0-.595-2.163,2.053,2.053,0,0,0-1.893-.865Z" transform="translate(-388.654 -401.787)" fill="#fff"/>
  </g>
  <path id="path7454" d="M475.931,458.556v25.4l-22,12.7-22-12.7v-25.4l22-12.7Z" transform="translate(-361.627 -377.898)" fill="none" stroke="#fff" stroke-linejoin="round" stroke-width="2.6"/>
  <path id="path7452" d="M494.243,490.109v25.4l-22,12.7-22-12.7v-25.4l22-12.7Z" transform="translate(-357.767 -371.247)" fill="none" stroke="#fff" stroke-linejoin="round" stroke-width="2.6"/>
  <path id="path7450" d="M457.761,490.028v25.4l-22,12.7-22-12.7v-25.4l22-12.7Z" transform="translate(-365.457 -371.264)" fill="none" stroke="#fff" stroke-linejoin="round" stroke-width="2.6"/>
  <path id="path7448" d="M431.869,530.61V479.322l21.83-12.6,44.417,25.644-44,25.4-22.171-12.8-.074,25.644" transform="translate(-361.64 -373.5)" fill="none" stroke="#fff" stroke-linejoin="round" stroke-width="2.6"/>
  <path id="path7446" d="M450.241,466.521v25.687" transform="translate(-357.767 -373.542)" fill="none" stroke="#fff" stroke-linejoin="round" stroke-width="2.6"/>
  <path id="path7414-8" d="M453.76,471.125l22.245-12.843-21.892-12.639-22.246,12.843Z" transform="translate(-361.64 -377.942)" fill="#fff" stroke="#fff" stroke-linejoin="round" stroke-width="2.6"/>
  <path id="path7414-8-8" d="M435.68,502.779l22.246-12.843L436.034,477.3,413.788,490.14Z" transform="translate(-365.451 -371.27)" fill="#fff" stroke="#fff" stroke-linejoin="round" stroke-width="2.6"/>
  <path id="path7414-8-1" d="M450.039,513.164l22.246,12.843V500.729l-22.246-12.843Z" transform="translate(-357.81 -369.038)" fill="#fff" stroke="#fff" stroke-linejoin="round" stroke-width="2.6"/>
</svg>
