<svg xmlns="http://www.w3.org/2000/svg" width="179.309" height="179.602" viewBox="0 0 179.309 179.602">
  <g id="Group_6306" data-name="Group 6306" transform="translate(0 0)">
    <path id="rect8528-63-2-4-3-6-0-4-3" d="M210.894,389.728H388.2a1,1,0,0,1,1,1v177.6a1,1,0,0,1-1,1H210.894a1,1,0,0,1-1-1v-177.6A1,1,0,0,1,210.894,389.728Z" transform="translate(-209.893 -389.728)" fill="#8f1838" fill-rule="evenodd"/>
    <g id="text6065-3-2-9-6-6-5-0" transform="translate(48.393 15.689)">
      <path id="path2139" d="M253.3,402.8a3.419,3.419,0,0,1,2.509,1.04,3.31,3.31,0,0,1,1.062,2.486v7.865a3.713,3.713,0,0,1-1.017,2.712,3.507,3.507,0,0,1-2.622,1.04h-3.368V402.8Zm1.424,11.391v-7.865a1.375,1.375,0,0,0-.475-1.062,1.548,1.548,0,0,0-1.107-.429h-1.13v11.1h1.062Q254.72,415.929,254.72,414.189Z" transform="translate(-249.861 -402.662)" fill="#fff"/>
      <path id="path2141" d="M263.674,415.771v2.17h-6.487V402.8h6.487v1.989h-4.339v4.475h3.8v2.057h-3.8v4.452Z" transform="translate(-248.316 -402.662)" fill="#fff"/>
      <path id="path2143" d="M270.313,414.145a7.369,7.369,0,0,1-.09,1.243,2.86,2.86,0,0,1-.452,1.13,3.2,3.2,0,0,1-.52.61,3.948,3.948,0,0,1-.678.5,4.174,4.174,0,0,1-.791.339,2.77,2.77,0,0,1-.836.136,4,4,0,0,1-1.853-.429,2.915,2.915,0,0,1-1.2-1.085,4.009,4.009,0,0,1-.5-1.22,7.736,7.736,0,0,1-.09-1.22v-7.8a5.124,5.124,0,0,1,.113-1.13,3.566,3.566,0,0,1,.542-1.108,3.272,3.272,0,0,1,1.153-.995,3.081,3.081,0,0,1,1.559-.429,3.554,3.554,0,0,1,3.639,3.661v.814h-2.147v-.814a1.593,1.593,0,0,0-.362-1.062,1.217,1.217,0,0,0-1.017-.429,1.231,1.231,0,0,0-.994.429,1.661,1.661,0,0,0-.339,1.062v8.385a1.98,1.98,0,0,0,.316.768,1.179,1.179,0,0,0,1.04.452,1.1,1.1,0,0,0,1.017-.407,2.547,2.547,0,0,0,.294-.588,2.6,2.6,0,0,0,.045-.542v-.768h2.147Z" transform="translate(-247.026 -402.686)" fill="#fff"/>
      <path id="path2145" d="M276.782,415.771v2.17H270.3V402.8h6.487v1.989h-4.339v4.475h3.8v2.057h-3.8v4.452Z" transform="translate(-245.553 -402.662)" fill="#fff"/>
      <path id="path2147" d="M282.234,417.941l-3.368-9.2v9.2H276.7V402.8h2.057l3.345,9.176V402.8h2.17v15.143Z" transform="translate(-244.204 -402.662)" fill="#fff"/>
      <path id="path2149" d="M285.928,417.941V404.809h-2.554V402.8h7.3v2.011h-2.6v13.131Z" transform="translate(-242.796 -402.662)" fill="#fff"/>
      <path id="path2151" d="M299.466,417.941l-1.785-9.221-1.74,9.221h-2.012L291.736,402.8h2.305l1.085,9.154,1.74-9.154h1.6l1.786,9.154,1.085-9.154h2.283L301.5,417.941Z" transform="translate(-241.034 -402.662)" fill="#fff"/>
      <path id="path2153" d="M302.8,404.245a3.647,3.647,0,0,1,1.311-1.13,3.542,3.542,0,0,1,1.672-.429,3.626,3.626,0,0,1,1.559.339,3.5,3.5,0,0,1,1.243.927,3.3,3.3,0,0,1,.678,1.22,4.679,4.679,0,0,1,.181,1.334v7.707a4.763,4.763,0,0,1-.136,1.2,3.682,3.682,0,0,1-1.74,2.237,3.325,3.325,0,0,1-1.718.452,3.935,3.935,0,0,1-1.04-.136,4.674,4.674,0,0,1-.927-.407,4.218,4.218,0,0,1-.768-.565,2.787,2.787,0,0,1-.5-.656,4.346,4.346,0,0,1-.407-1.13,6.453,6.453,0,0,1-.068-.994v-7.707a4.765,4.765,0,0,1,.136-1.2A3.651,3.651,0,0,1,302.8,404.245Zm4.2,1.2a1.348,1.348,0,0,0-1.175-.633,1.5,1.5,0,0,0-.768.226,1.34,1.34,0,0,0-.52.475,1.913,1.913,0,0,0-.181.542,2.849,2.849,0,0,0-.045.452v7.956a1.52,1.52,0,0,0,.023.249,2.086,2.086,0,0,0,.362.746,1.293,1.293,0,0,0,1.13.475,1.431,1.431,0,0,0,.723-.181,1.252,1.252,0,0,0,.475-.452,1.649,1.649,0,0,0,.2-.5,3.1,3.1,0,0,0,.045-.588v-7.707a3,3,0,0,0-.045-.633.914.914,0,0,0-.226-.429Z" transform="translate(-238.839 -402.686)" fill="#fff"/>
      <path id="path2155" d="M309.7,417.941V402.8h3.8a3.371,3.371,0,0,1,2.509,1.04,3.472,3.472,0,0,1,1.04,2.554v1.4A3.555,3.555,0,0,1,315.257,411l2.305,6.939h-2.305l-2.034-6.487h-1.356v6.487Zm4.814-8.882a1.314,1.314,0,0,0,.271-.565,2.544,2.544,0,0,0,.09-.7v-1.4a1.631,1.631,0,0,0-.384-1.13,1.346,1.346,0,0,0-1.085-.452h-1.537v4.724h1.514a1.5,1.5,0,0,0,1.13-.475Z" transform="translate(-237.248 -402.662)" fill="#fff"/>
      <path id="path2157" d="M322.562,417.941l-2.418-6.758-1.2,2.238v4.52H316.8V402.8h2.17v6.961L322.2,402.8h2.147l-2.961,6.035,3.481,9.108Z" transform="translate(-235.751 -402.662)" fill="#fff"/>
      <path id="path2159" d="M325.261,417.941l3.39-15.143h1.876l3.39,15.143H331.59l-.61-3.255h-2.8l-.633,3.255Zm3.3-5.266H330.6l-1.017-5.515Z" transform="translate(-233.967 -402.662)" fill="#fff"/>
      <path id="path2161" d="M338.86,417.941l-3.368-9.2v9.2h-2.17V402.8h2.057l3.345,9.176V402.8h2.17v15.143Z" transform="translate(-232.268 -402.662)" fill="#fff"/>
      <path id="path2163" d="M344.271,402.8a3.419,3.419,0,0,1,2.509,1.04,3.31,3.31,0,0,1,1.062,2.486v7.865a3.713,3.713,0,0,1-1.017,2.712,3.507,3.507,0,0,1-2.622,1.04h-3.368V402.8Zm1.424,11.391v-7.865a1.375,1.375,0,0,0-.475-1.062,1.548,1.548,0,0,0-1.107-.429h-1.13v11.1h1.062Q345.7,415.929,345.7,414.189Z" transform="translate(-230.684 -402.662)" fill="#fff"/>
      <path id="path2165" d="M256.347,433.018v2.17H249.86V420.045h6.487v1.989h-4.339v4.475h3.8v2.057h-3.8v4.452Z" transform="translate(-249.86 -399.027)" fill="#fff"/>
      <path id="path2167" d="M262.909,431.392a7.37,7.37,0,0,1-.09,1.243,2.86,2.86,0,0,1-.452,1.13,3.2,3.2,0,0,1-.52.61,3.945,3.945,0,0,1-.678.5,4.17,4.17,0,0,1-.791.339,2.77,2.77,0,0,1-.836.136,4,4,0,0,1-1.853-.429,2.915,2.915,0,0,1-1.2-1.085,4.007,4.007,0,0,1-.5-1.221,7.732,7.732,0,0,1-.09-1.22v-7.8a5.123,5.123,0,0,1,.113-1.13,3.565,3.565,0,0,1,.542-1.107,3.272,3.272,0,0,1,1.153-.995,3.082,3.082,0,0,1,1.56-.429,3.554,3.554,0,0,1,3.639,3.661v.814h-2.147v-.814a1.592,1.592,0,0,0-.362-1.062,1.217,1.217,0,0,0-1.017-.429,1.231,1.231,0,0,0-.994.429,1.661,1.661,0,0,0-.339,1.062v8.385a1.978,1.978,0,0,0,.316.768,1.179,1.179,0,0,0,1.04.452,1.1,1.1,0,0,0,1.017-.407,2.55,2.55,0,0,0,.294-.588,2.6,2.6,0,0,0,.045-.542v-.768h2.147Z" transform="translate(-248.587 -399.05)" fill="#fff"/>
      <path id="path2169" d="M263.637,421.492a3.645,3.645,0,0,1,1.311-1.13,3.542,3.542,0,0,1,1.672-.429,3.627,3.627,0,0,1,1.559.339,3.5,3.5,0,0,1,1.243.927,3.3,3.3,0,0,1,.678,1.22,4.68,4.68,0,0,1,.181,1.333v7.707a4.764,4.764,0,0,1-.136,1.2,3.683,3.683,0,0,1-1.74,2.238,3.325,3.325,0,0,1-1.718.452,3.934,3.934,0,0,1-1.04-.136,4.668,4.668,0,0,1-.927-.407,4.22,4.22,0,0,1-.768-.565,2.793,2.793,0,0,1-.5-.655,4.343,4.343,0,0,1-.407-1.13,6.443,6.443,0,0,1-.068-.994v-7.707a4.765,4.765,0,0,1,.136-1.2A3.649,3.649,0,0,1,263.637,421.492Zm4.2,1.2a1.348,1.348,0,0,0-1.175-.633,1.505,1.505,0,0,0-.768.226,1.34,1.34,0,0,0-.52.475,1.91,1.91,0,0,0-.181.542,2.842,2.842,0,0,0-.045.452v7.956a1.52,1.52,0,0,0,.023.249,2.088,2.088,0,0,0,.362.746,1.293,1.293,0,0,0,1.13.475,1.432,1.432,0,0,0,.723-.181,1.255,1.255,0,0,0,.475-.452,1.651,1.651,0,0,0,.2-.5,3.1,3.1,0,0,0,.045-.588v-7.707a3,3,0,0,0-.045-.633.914.914,0,0,0-.226-.429Z" transform="translate(-247.095 -399.05)" fill="#fff"/>
      <path id="path2171" d="M275.98,435.188l-3.368-9.2v9.2h-2.17V420.045H272.5l3.345,9.176v-9.176h2.17v15.143Z" transform="translate(-245.522 -399.027)" fill="#fff"/>
      <path id="path2173" d="M278.445,421.492a3.646,3.646,0,0,1,1.311-1.13,3.542,3.542,0,0,1,1.672-.429,3.628,3.628,0,0,1,1.559.339,3.5,3.5,0,0,1,1.243.927,3.3,3.3,0,0,1,.678,1.22,4.678,4.678,0,0,1,.181,1.333v7.707a4.768,4.768,0,0,1-.136,1.2,3.683,3.683,0,0,1-1.74,2.238,3.324,3.324,0,0,1-1.718.452,3.934,3.934,0,0,1-1.04-.136,4.666,4.666,0,0,1-.927-.407,4.218,4.218,0,0,1-.768-.565,2.791,2.791,0,0,1-.5-.655,4.341,4.341,0,0,1-.407-1.13,6.443,6.443,0,0,1-.068-.994v-7.707a4.77,4.77,0,0,1,.136-1.2A3.651,3.651,0,0,1,278.445,421.492Zm4.2,1.2a1.348,1.348,0,0,0-1.175-.633,1.5,1.5,0,0,0-.768.226,1.34,1.34,0,0,0-.52.475,1.915,1.915,0,0,0-.181.542,2.841,2.841,0,0,0-.045.452v7.956a1.52,1.52,0,0,0,.023.249,2.09,2.09,0,0,0,.362.746,1.293,1.293,0,0,0,1.13.475A1.432,1.432,0,0,0,282.2,433a1.254,1.254,0,0,0,.475-.452,1.652,1.652,0,0,0,.2-.5,3.1,3.1,0,0,0,.045-.588v-7.707a3,3,0,0,0-.045-.633.915.915,0,0,0-.226-.429Z" transform="translate(-243.973 -399.05)" fill="#fff"/>
      <path id="path2175" d="M292.7,435.188v-9.221l-2.17,6.464h-1.085l-2.147-6.464v9.221h-2.17V420.045h2.034l2.87,8.069,2.825-8.069h1.989v15.143Z" transform="translate(-242.426 -399.027)" fill="#fff"/>
      <path id="path2177" d="M294.237,435.188V420.045h2.147v15.143Z" transform="translate(-240.507 -399.027)" fill="#fff"/>
      <path id="path2179" d="M304.609,431.392a7.367,7.367,0,0,1-.09,1.243,2.86,2.86,0,0,1-.452,1.13,3.2,3.2,0,0,1-.52.61,3.941,3.941,0,0,1-.678.5,4.169,4.169,0,0,1-.791.339,2.77,2.77,0,0,1-.836.136,4,4,0,0,1-1.853-.429,2.916,2.916,0,0,1-1.2-1.085,4.008,4.008,0,0,1-.5-1.221,7.725,7.725,0,0,1-.09-1.22v-7.8a5.123,5.123,0,0,1,.113-1.13,3.565,3.565,0,0,1,.542-1.107,3.271,3.271,0,0,1,1.153-.995,3.082,3.082,0,0,1,1.56-.429,3.554,3.554,0,0,1,3.639,3.661v.814h-2.147v-.814a1.593,1.593,0,0,0-.362-1.062,1.217,1.217,0,0,0-1.017-.429,1.231,1.231,0,0,0-.994.429,1.661,1.661,0,0,0-.339,1.062v8.385a1.979,1.979,0,0,0,.316.768,1.179,1.179,0,0,0,1.04.452,1.1,1.1,0,0,0,1.017-.407,2.542,2.542,0,0,0,.294-.588,2.6,2.6,0,0,0,.045-.542v-.768h2.147Z" transform="translate(-239.797 -399.05)" fill="#fff"/>
      <path id="path2181" d="M313.427,433.629a3.7,3.7,0,0,1-1.333,1.266,3.615,3.615,0,0,1-1.786.452,3.7,3.7,0,0,1-1.672-.407,3.625,3.625,0,0,1-1.243-.995,3.777,3.777,0,0,1-.588-1.22,6.376,6.376,0,0,1-.136-1.379v-7.572a5.75,5.75,0,0,1,.113-1.13,6.581,6.581,0,0,1,.836-1.6,3.02,3.02,0,0,1,2.757-1.107,3.5,3.5,0,0,1,1.7.429,3.191,3.191,0,0,1,1.2,1.062,3.142,3.142,0,0,1,.542,1.175,4.839,4.839,0,0,1,.136,1.175v.633H311.8v-.633a1.941,1.941,0,0,0-.023-.316,1.4,1.4,0,0,0-.023-.271,1.768,1.768,0,0,0-.339-.655,1.2,1.2,0,0,0-1.062-.452,1.277,1.277,0,0,0-1.175.475,2.745,2.745,0,0,0-.316.7,2.673,2.673,0,0,0-.045.52v7.956a1.4,1.4,0,0,0,.023.271,2.414,2.414,0,0,0,.339.7,1.25,1.25,0,0,0,1.153.475q.881,0,1.13-.475.136-.249.2-.407a1.75,1.75,0,0,0,.09-.316.855.855,0,0,0,.045-.271V428.7h-1.74v-1.9h3.887v4.543q0,.475-.023.814a2.96,2.96,0,0,1-.09.565,2.567,2.567,0,0,1-.181.475,3.993,3.993,0,0,1-.226.429Z" transform="translate(-237.886 -399.05)" fill="#fff"/>
      <path id="path2183" d="M313.954,435.188V420.045h3.8a3.371,3.371,0,0,1,2.509,1.04,3.472,3.472,0,0,1,1.04,2.554v1.4a3.555,3.555,0,0,1-1.786,3.209l2.305,6.939h-2.305L317.48,428.7h-1.356v6.487Zm4.814-8.882a1.315,1.315,0,0,0,.271-.565,2.543,2.543,0,0,0,.091-.7v-1.4a1.631,1.631,0,0,0-.384-1.13,1.346,1.346,0,0,0-1.085-.452h-1.537v4.724h1.514A1.5,1.5,0,0,0,318.769,426.305Z" transform="translate(-236.35 -399.027)" fill="#fff"/>
      <path id="path2185" d="M321.623,421.492a3.645,3.645,0,0,1,1.311-1.13,3.542,3.542,0,0,1,1.672-.429,3.627,3.627,0,0,1,1.559.339,3.5,3.5,0,0,1,1.243.927,3.3,3.3,0,0,1,.678,1.22,4.678,4.678,0,0,1,.181,1.333v7.707a4.762,4.762,0,0,1-.136,1.2,3.683,3.683,0,0,1-1.74,2.238,3.325,3.325,0,0,1-1.718.452,3.935,3.935,0,0,1-1.04-.136,4.669,4.669,0,0,1-.927-.407,4.221,4.221,0,0,1-.768-.565,2.793,2.793,0,0,1-.5-.655,4.343,4.343,0,0,1-.407-1.13,6.443,6.443,0,0,1-.068-.994v-7.707a4.768,4.768,0,0,1,.136-1.2A3.65,3.65,0,0,1,321.623,421.492Zm4.2,1.2a1.348,1.348,0,0,0-1.175-.633,1.5,1.5,0,0,0-.768.226,1.34,1.34,0,0,0-.52.475,1.913,1.913,0,0,0-.181.542,2.842,2.842,0,0,0-.045.452v7.956a1.523,1.523,0,0,0,.023.249,2.09,2.09,0,0,0,.362.746,1.293,1.293,0,0,0,1.13.475,1.432,1.432,0,0,0,.723-.181,1.254,1.254,0,0,0,.475-.452,1.655,1.655,0,0,0,.2-.5,3.1,3.1,0,0,0,.045-.588v-7.707a3,3,0,0,0-.045-.633.915.915,0,0,0-.226-.429Z" transform="translate(-234.872 -399.05)" fill="#fff"/>
      <path id="path2187" d="M335.662,435.188l-1.786-9.221-1.74,9.221h-2.012l-2.192-15.143h2.305l1.085,9.154,1.74-9.154h1.6l1.786,9.154,1.085-9.154h2.283L337.7,435.188Z" transform="translate(-233.404 -399.027)" fill="#fff"/>
      <path id="path2189" d="M340.7,435.188V422.056h-2.554v-2.011h7.3v2.011h-2.6v13.131Z" transform="translate(-231.251 -399.027)" fill="#fff"/>
      <path id="path2191" d="M345.053,435.188V420.045H347.2v6.464h2.757v-6.464H352.1v15.143h-2.147V428.43H347.2v6.758Z" transform="translate(-229.795 -399.027)" fill="#fff"/>
    </g>
    <g id="text6075-0-6-9-2-5-9-0" transform="translate(18.606 14.601)">
      <path id="path2194" d="M240.727,430.883v.379a6.463,6.463,0,0,1-.541,2.488,9.122,9.122,0,0,1-1.514,2.434,8.158,8.158,0,0,1-2.326,1.785,6.236,6.236,0,0,1-2.92.7h-.162a8.233,8.233,0,0,1-2.271-.324,10.336,10.336,0,0,1-2.055-.865,9.431,9.431,0,0,1-1.622-1.19,4.711,4.711,0,0,1-1.028-1.46,10.278,10.278,0,0,1-.865-2.488,13.153,13.153,0,0,1-.162-2.055v-6.328a5.783,5.783,0,0,1,2.6-4.759,6.325,6.325,0,0,1-2.6-5.354V408.98a5.769,5.769,0,0,1,.379-2.109,13.979,13.979,0,0,1,1.947-3.083q1.514-2,5.57-2a6.776,6.776,0,0,1,2.866.649,11.331,11.331,0,0,1,3.029,2.38,6.437,6.437,0,0,1,1.677,4.759v4.651a5.789,5.789,0,0,1-2.6,4.976,6.027,6.027,0,0,1,2.6,5.138Zm-7.68-23.958a2.677,2.677,0,0,0-2.65,2.65v4.651a3.655,3.655,0,0,0,.649,2.163,2.371,2.371,0,0,0,1.947.865,2.253,2.253,0,0,0,1.947-.811,3.6,3.6,0,0,0,.649-2.217v-4.651a2.624,2.624,0,0,0-.757-1.839A2.259,2.259,0,0,0,233.047,406.925Zm0,14.278a2.544,2.544,0,0,0-1.947.811,2.748,2.748,0,0,0-.7,1.947v6.328a3.937,3.937,0,0,0,.649,2.326,2.465,2.465,0,0,0,2.109.865,1.94,1.94,0,0,0,1.893-.919,4.6,4.6,0,0,0,.541-2.271v-6.328a2.748,2.748,0,0,0-.7-1.947A2.219,2.219,0,0,0,233.047,421.2Z" transform="translate(-225.259 -401.787)" fill="#fff"/>
    </g>
    <path id="path7328" d="M334.158,444.061a.837.837,0,0,0-.229.028l-14.794,3.963a.832.832,0,0,0-.371,1.393l3.2,3.2-31.589,31.611L277.8,471.682a3.027,3.027,0,0,0-4.28,0l-25.386,25.386,4.283,4.28L275.657,478.1l12.571,12.574a3.027,3.027,0,0,0,4.283,0l33.729-33.753,3.351,3.351a.833.833,0,0,0,1.393-.371l3.963-14.794A.831.831,0,0,0,334.158,444.061Zm-7.917,21.425L306.31,485.431v48.72a2.306,2.306,0,0,0,2.313,2.31h16.951a2.306,2.306,0,0,0,2.313-2.31V467.132Zm-51.177,21.773L253.49,508.835v25.315a2.306,2.306,0,0,0,2.313,2.31h16.951a2.3,2.3,0,0,0,2.31-2.31Zm26.41,3.011-8.963,8.97a3.027,3.027,0,0,1-4.283,0l-8.329-8.331v43.243a2.306,2.306,0,0,0,2.313,2.31h16.951a2.3,2.3,0,0,0,2.311-2.31Z" transform="translate(-201.832 -378.276)" fill="#fff"/>
    <path id="path7328-8" d="M334.158,444.061a.837.837,0,0,0-.229.028l-14.794,3.963a.832.832,0,0,0-.371,1.393l3.2,3.2-31.589,31.611L277.8,471.682a3.027,3.027,0,0,0-4.28,0l-25.386,25.386,4.283,4.28L275.657,478.1l12.571,12.574a3.027,3.027,0,0,0,4.283,0l33.729-33.753,3.351,3.351a.833.833,0,0,0,1.393-.371l3.963-14.794A.831.831,0,0,0,334.158,444.061Z" transform="translate(-201.832 -378.276)" fill="#fff"/>
  </g>
</svg>
