<svg id="Group_6308" data-name="Group 6308" xmlns="http://www.w3.org/2000/svg" width="179.309" height="179.602" viewBox="0 0 179.309 179.602">
  <path id="rect8528-63-2-4-3-6-0" d="M538.841,389.728H716.148a1,1,0,0,1,1,1v177.6a1,1,0,0,1-1,1H538.841a1,1,0,0,1-1-1v-177.6A1,1,0,0,1,538.841,389.728Z" transform="translate(-537.84 -389.728)" fill="#e11484" fill-rule="evenodd"/>
  <g id="text6065-3-2-9-6-6-5-0-0-8" transform="translate(57.884 15.275)">
    <path id="path2273" d="M585.647,417.6V402.456h3.8a3.371,3.371,0,0,1,2.509,1.04,3.472,3.472,0,0,1,1.04,2.554v1.4a3.555,3.555,0,0,1-1.786,3.209l2.305,6.939h-2.305l-2.034-6.487h-1.356V417.6Zm4.814-8.882a1.312,1.312,0,0,0,.271-.565,2.545,2.545,0,0,0,.091-.7v-1.4a1.631,1.631,0,0,0-.384-1.13,1.346,1.346,0,0,0-1.085-.452h-1.537v4.724h1.514a1.5,1.5,0,0,0,1.13-.475Z" transform="translate(-585.647 -402.32)" fill="#fff"/>
    <path id="path2275" d="M599.4,415.429v2.17h-6.487V402.456H599.4v1.989h-4.339v4.475h3.8v2.057h-3.8v4.452Z" transform="translate(-584.115 -402.32)" fill="#fff"/>
    <path id="path2277" d="M602.561,402.456a3.419,3.419,0,0,1,2.509,1.04,3.31,3.31,0,0,1,1.062,2.486v7.865a3.713,3.713,0,0,1-1.017,2.712,3.507,3.507,0,0,1-2.622,1.04h-3.368V402.456Zm1.424,11.391v-7.865a1.375,1.375,0,0,0-.475-1.062,1.548,1.548,0,0,0-1.107-.429h-1.13v11.1h1.062q1.65,0,1.65-1.74Z" transform="translate(-582.805 -402.32)" fill="#fff"/>
    <path id="path2279" d="M613.263,416.017a3.91,3.91,0,0,1-1.289,1.243,3.2,3.2,0,0,1-1.718.475,3.44,3.44,0,0,1-.949-.136,5.368,5.368,0,0,1-.859-.339,4.365,4.365,0,0,1-.723-.5,2.164,2.164,0,0,1-.475-.61,4.753,4.753,0,0,1-.452-1.107,5.415,5.415,0,0,1-.091-1.017V402.456h2.17v11.866l.045.226a1.848,1.848,0,0,0,.339.633,1.171,1.171,0,0,0,1.017.407,1.087,1.087,0,0,0,.972-.475,1.885,1.885,0,0,0,.339-1.085V402.456h2.17v11.572a4.675,4.675,0,0,1-.113,1.04,3.222,3.222,0,0,1-.384.949Z" transform="translate(-581.207 -402.32)" fill="#fff"/>
    <path id="path2281" d="M620.97,413.8a7.339,7.339,0,0,1-.091,1.243,2.858,2.858,0,0,1-.452,1.13,3.2,3.2,0,0,1-.52.61,3.944,3.944,0,0,1-.678.5,4.16,4.16,0,0,1-.791.339,2.767,2.767,0,0,1-.836.136,4,4,0,0,1-1.853-.429,2.913,2.913,0,0,1-1.2-1.085,4,4,0,0,1-.5-1.22,7.74,7.74,0,0,1-.09-1.22v-7.8a5.127,5.127,0,0,1,.113-1.13,3.565,3.565,0,0,1,.542-1.107,3.27,3.27,0,0,1,1.153-.994,3.082,3.082,0,0,1,1.56-.429,3.554,3.554,0,0,1,3.639,3.661v.814h-2.147v-.814a1.594,1.594,0,0,0-.362-1.062,1.217,1.217,0,0,0-1.017-.429,1.23,1.23,0,0,0-.994.429,1.661,1.661,0,0,0-.339,1.062v8.385a1.978,1.978,0,0,0,.316.768,1.179,1.179,0,0,0,1.04.452,1.1,1.1,0,0,0,1.017-.407,2.55,2.55,0,0,0,.294-.588,2.6,2.6,0,0,0,.045-.542v-.768h2.147Z" transform="translate(-579.678 -402.344)" fill="#fff"/>
    <path id="path2283" d="M627.6,415.429v2.17h-6.487V402.456H627.6v1.989H623.26v4.475h3.8v2.057h-3.8v4.452Z" transform="translate(-578.171 -402.32)" fill="#fff"/>
    <path id="path2285" d="M630.763,402.456a3.419,3.419,0,0,1,2.509,1.04,3.31,3.31,0,0,1,1.062,2.486v7.865a3.713,3.713,0,0,1-1.017,2.712,3.507,3.507,0,0,1-2.622,1.04h-3.368V402.456Zm1.424,11.391v-7.865a1.375,1.375,0,0,0-.475-1.062,1.548,1.548,0,0,0-1.107-.429h-1.13v11.1h1.062q1.65,0,1.65-1.74Z" transform="translate(-576.861 -402.32)" fill="#fff"/>
    <path id="path2287" d="M585.907,434.846V419.7h2.147v15.143Z" transform="translate(-585.592 -398.685)" fill="#fff"/>
    <path id="path2289" d="M594.68,434.846l-3.368-9.2v9.2h-2.17V419.7H591.2l3.345,9.176V419.7h2.17v15.143Z" transform="translate(-584.91 -398.685)" fill="#fff"/>
    <path id="path2291" d="M602.986,432.676v2.17H596.5V419.7h6.486v1.989h-4.339v4.475h3.8v2.057h-3.8v4.453Z" transform="translate(-583.359 -398.685)" fill="#fff"/>
    <path id="path2293" d="M603.321,433.694a2.983,2.983,0,0,1-.7-1.2,6.207,6.207,0,0,1-.158-1.492v-7.526a3.873,3.873,0,0,1,1.04-2.757,3.507,3.507,0,0,1,2.667-1.13,3.582,3.582,0,0,1,2.554,1.062,3.421,3.421,0,0,1,1.085,2.531V431a5.047,5.047,0,0,1-.068.972,2.492,2.492,0,0,1-.181.633l1.424,1.2-1.2,1.447-1.356-1.085a3.662,3.662,0,0,1-2.4.814,3.393,3.393,0,0,1-1.492-.362,3.967,3.967,0,0,1-1.22-.927Zm3.594-3.255.723.565v-7.526a1.865,1.865,0,0,0-.407-1.221,1.354,1.354,0,0,0-1.13-.52,1.393,1.393,0,0,0-.791.226,1.415,1.415,0,0,0-.5.542,2,2,0,0,0-.158.5,3.659,3.659,0,0,0-.023.475v7.685a2.009,2.009,0,0,0,.362,1.175,1.448,1.448,0,0,0,1.175.52,1.424,1.424,0,0,0,.542-.136l-.994-.836Z" transform="translate(-582.102 -398.708)" fill="#fff"/>
    <path id="path2295" d="M616.5,433.264a3.907,3.907,0,0,1-1.288,1.243,3.2,3.2,0,0,1-1.718.475,3.435,3.435,0,0,1-.949-.136,5.352,5.352,0,0,1-.859-.339,4.358,4.358,0,0,1-.723-.5,2.169,2.169,0,0,1-.475-.61,4.766,4.766,0,0,1-.452-1.107,5.431,5.431,0,0,1-.091-1.017V419.7h2.17v11.866l.045.226a1.85,1.85,0,0,0,.339.633,1.172,1.172,0,0,0,1.017.407,1.087,1.087,0,0,0,.972-.475,1.886,1.886,0,0,0,.339-1.085V419.7H617v11.572a4.683,4.683,0,0,1-.113,1.04,3.225,3.225,0,0,1-.384.949Z" transform="translate(-580.524 -398.685)" fill="#fff"/>
    <path id="path2297" d="M616.482,434.846l3.39-15.143h1.876l3.39,15.143h-2.328l-.61-3.255h-2.8l-.633,3.255Zm3.3-5.266h2.034l-1.017-5.515Z" transform="translate(-579.147 -398.685)" fill="#fff"/>
    <path id="path2299" d="M631.026,434.846h-6.464V419.7h2.17v12.973h4.294Z" transform="translate(-577.443 -398.685)" fill="#fff"/>
    <path id="path2301" d="M630.285,434.846V419.7h2.147v15.143Z" transform="translate(-576.237 -398.685)" fill="#fff"/>
    <path id="path2303" d="M635.765,434.846V421.714h-2.554V419.7h7.3v2.012h-2.6v13.131Z" transform="translate(-575.621 -398.685)" fill="#fff"/>
    <path id="path2305" d="M639.817,434.846V419.7h2.147v15.143Z" transform="translate(-574.228 -398.685)" fill="#fff"/>
    <path id="path2307" d="M649.6,432.676v2.17h-6.487V419.7H649.6v1.989H645.26v4.475h3.8v2.057h-3.8v4.453Z" transform="translate(-573.533 -398.685)" fill="#fff"/>
    <path id="path2309" d="M651.1,431.095v.384a1.4,1.4,0,0,0,.023.271,2.063,2.063,0,0,0,.339.655,1.285,1.285,0,0,0,1.13.452,1.939,1.939,0,0,0,.836-.181,1.359,1.359,0,0,0,.565-.52,1.258,1.258,0,0,0,.158-.475,2.1,2.1,0,0,0,.045-.407v-1.469a1.38,1.38,0,0,0-.181-.768,2.313,2.313,0,0,0-.814-.655,14.521,14.521,0,0,0-1.537-.633,4.348,4.348,0,0,1-1.853-1.288,3.59,3.59,0,0,1-.746-2.4v-.678a3.758,3.758,0,0,1,1.04-2.667,3.405,3.405,0,0,1,2.577-1.13A3.443,3.443,0,0,1,655.3,420.7a3.742,3.742,0,0,1,1.062,2.69v.678h-2.17v-.678a1.79,1.79,0,0,0-.023-.294,1.266,1.266,0,0,0-.023-.249.948.948,0,0,0-.113-.271q-.09-.158-.248-.384a1.205,1.205,0,0,0-1.062-.452,1.4,1.4,0,0,0-1.085.475,1.743,1.743,0,0,0-.407,1.175v.881a1.63,1.63,0,0,0,.135.723,2.082,2.082,0,0,0,.723.565q.181.09.542.249.384.136.927.339a4.635,4.635,0,0,1,1.944,1.288,3.448,3.448,0,0,1,.859,2.441v1.221a4.828,4.828,0,0,1-.158,1.333,5.164,5.164,0,0,1-.927,1.582,3.186,3.186,0,0,1-2.644.994,3.224,3.224,0,0,1-2.848-1.266,4.63,4.63,0,0,1-.881-2.644v-.542H651.1Z" transform="translate(-572.313 -398.708)" fill="#fff"/>
  </g>
  <g id="text6075-0-6-9-2-5-9-0-9-4" transform="translate(12.455 14.601)">
    <path id="path2312" d="M553.319,438.29V407.463l-5.192,3.894v-5.516l5.192-3.786h5.138V438.29Z" transform="translate(-548.127 -401.731)" fill="#fff"/>
    <path id="path2314" d="M568.192,438.455a7.5,7.5,0,0,1-6.652-6.706V408.439q.7-4.273,3.732-5.733a9.865,9.865,0,0,1,4.164-.919,12.956,12.956,0,0,1,2.812.324,13.549,13.549,0,0,1,3.137,2.542,7.362,7.362,0,0,1,1.623,3.786v23.2a7.586,7.586,0,0,1-5.625,6.76h-1.028a21.273,21.273,0,0,1-2.163.054Zm.541-5.192a2.849,2.849,0,0,0,3.029-2.163V409.251a8.381,8.381,0,0,0-.7-1.677,2.962,2.962,0,0,0-1.785-.7,1.9,1.9,0,0,0-1.514.7,4.4,4.4,0,0,0-.919,1.677v21.741A2.858,2.858,0,0,0,568.733,433.263Z" transform="translate(-545.299 -401.787)" fill="#fff"/>
  </g>
  <path id="rect7477-8-0" d="M603.539,474.928v11.4h34.153v-11.4Zm0,21.092V507.6h34.153V496.02Zm17.041-51.993-16.965,16.965h33.93ZM590.537,474.07,573.608,491l16.93,16.93Zm60.156.071v33.618L667.5,490.95Zm-46.764,47.181,16.6,16.6,16.6-16.6Z" transform="translate(-530.301 -378.283)" fill="#fff" fill-rule="evenodd"/>
</svg>
