<svg id="meeting" xmlns="http://www.w3.org/2000/svg" width="47.914" height="47.914" viewBox="0 0 47.914 47.914">
  <path id="Path_6789" data-name="Path 6789" d="M8.993,11.986a3.993,3.993,0,1,1,3.993-3.993A4,4,0,0,1,8.993,11.986Z" transform="translate(4.982 3.986)" fill="#fab371"/>
  <path id="Path_6790" data-name="Path 6790" d="M17.474,14.989H4.5a1.5,1.5,0,0,1-1.5-1.5A4.5,4.5,0,0,1,7.492,9h6.988a4.5,4.5,0,0,1,4.492,4.492A1.5,1.5,0,0,1,17.474,14.989Z" transform="translate(2.989 8.968)" fill="#fab371"/>
  <circle id="Ellipse_396" data-name="Ellipse 396" cx="2.995" cy="2.995" r="2.995" transform="translate(38.93 33.939)" fill="#fab371"/>
  <path id="Path_6791" data-name="Path 6791" d="M28.481,26.989H19.5a1.5,1.5,0,0,1-1.5-1.5A4.5,4.5,0,0,1,22.492,21h2.995a4.5,4.5,0,0,1,4.492,4.492A1.5,1.5,0,0,1,28.481,26.989Z" transform="translate(17.936 20.925)" fill="#fab371"/>
  <circle id="Ellipse_397" data-name="Ellipse 397" cx="2.995" cy="2.995" r="2.995" transform="translate(22.959 33.939)" fill="#fab371"/>
  <path id="Path_6792" data-name="Path 6792" d="M20.481,26.989H11.5a1.5,1.5,0,0,1-1.5-1.5A4.5,4.5,0,0,1,14.492,21h2.995a4.5,4.5,0,0,1,4.492,4.492A1.5,1.5,0,0,1,20.481,26.989Z" transform="translate(9.964 20.925)" fill="#fab371"/>
  <path id="Path_6793" data-name="Path 6793" d="M25.954,13H2a2,2,0,1,0,0,3.993H4.238l1.751,16.63a1.511,1.511,0,0,0,1.5,1.338h8.718a5.384,5.384,0,0,1-.234-1.5,8.459,8.459,0,0,1,3.52-6.848,6.929,6.929,0,0,1,4.177-9.208l.044-.415h2.242a2,2,0,1,0,0-3.993Z" transform="translate(0 12.954)" fill="#fab371"/>
  <path id="Path_6794" data-name="Path 6794" d="M23.979,0A11.979,11.979,0,1,0,35.957,11.979,11.991,11.991,0,0,0,23.979,0Zm-.415,10.481H24.4a3.667,3.667,0,0,1,3.576,3.743,3.721,3.721,0,0,1-2.5,3.55v1.691a1.5,1.5,0,0,1-2.995,0v-1.5h-1a1.5,1.5,0,0,1,0-2.995h2.911a.772.772,0,0,0,0-1.5h-.833a3.667,3.667,0,0,1-3.576-3.743,3.721,3.721,0,0,1,2.5-3.55V4.492a1.5,1.5,0,1,1,2.995,0v1.5h1a1.5,1.5,0,0,1,0,2.995H23.563a.692.692,0,0,0-.583.749A.69.69,0,0,0,23.563,10.481Z" transform="translate(11.957)" fill="#fab371"/>
</svg>
