<svg xmlns="http://www.w3.org/2000/svg" width="47.28" height="43.312" viewBox="0 0 47.28 43.312">
  <g id="pie-chart_1_" data-name="pie-chart (1)" transform="translate(0 -13.594)">
    <g id="Group_6313" data-name="Group 6313" transform="translate(28.294 37.15)">
      <g id="Group_6312" data-name="Group 6312" transform="translate(0 0)">
        <path id="Path_6781" data-name="Path 6781" d="M211.561,175H195.175a1.3,1.3,0,0,0-.9,2.23l11.538,11.538a1.3,1.3,0,0,0,2.034-.16,20.721,20.721,0,0,0,4.99-12.077,1.011,1.011,0,0,0,.027-.233A1.3,1.3,0,0,0,211.561,175Z" transform="translate(-193.875 -175.001)" fill="#4cbeec"/>
      </g>
    </g>
    <g id="Group_6315" data-name="Group 6315" transform="translate(23.35 13.594)">
      <g id="Group_6314" data-name="Group 6314" transform="translate(0 0)">
        <path id="Path_6782" data-name="Path 6782" d="M161.3,13.594a1.3,1.3,0,0,0-1.3,1.3V33.1a1.3,1.3,0,0,0,1.3,1.3H179.51a1.3,1.3,0,0,0,1.3-1.3A20.851,20.851,0,0,0,161.3,13.594Z" transform="translate(-160 -13.594)" fill="#4cbeec"/>
      </g>
    </g>
    <g id="Group_6317" data-name="Group 6317" transform="translate(0 15.24)">
      <g id="Group_6316" data-name="Group 6316" transform="translate(0 0)">
        <path id="Path_6783" data-name="Path 6783" d="M34.656,59.49,21.221,46.055a1.3,1.3,0,0,1-.365-.908l0-18.977a1.294,1.294,0,0,0-1.3-1.3A20.853,20.853,0,1,0,34.57,61.392a1.287,1.287,0,0,0,.461-.99A1.3,1.3,0,0,0,34.656,59.49Z" transform="translate(0 -24.875)" fill="#4cbeec"/>
      </g>
    </g>
  </g>
</svg>
