<svg xmlns="http://www.w3.org/2000/svg" width="44.955" height="51.149" viewBox="0 0 44.955 51.149">
  <g id="profits" transform="translate(-31 0)">
    <path id="Path_6774" data-name="Path 6774" d="M152.5,9.091h1.5v3.1a1.5,1.5,0,0,0,1.5,1.5h5.994a1.5,1.5,0,0,0,1.5-1.5v-3.1h1.5a1.5,1.5,0,0,0,1.059-2.558L159.548.439a1.5,1.5,0,0,0-2.119,0l-5.994,6.094a1.5,1.5,0,0,0,1.06,2.558Z" transform="translate(-108.009 0)" fill="#7c45d9"/>
    <path id="Path_6775" data-name="Path 6775" d="M252.988,272a11.988,11.988,0,1,0,11.988,11.988A11.988,11.988,0,0,0,252.988,272Zm2.511,17.381a5.638,5.638,0,0,1-1.013.387v.414a1.5,1.5,0,0,1-3,0v-.367a4.765,4.765,0,0,1-1.7-.791,1.5,1.5,0,1,1,1.8-2.4,2.7,2.7,0,0,0,2.57.074c.329-.164.506-.362.506-.465,0-.179,0-.207-.2-.313a7.117,7.117,0,0,0-1.751-.461,8.991,8.991,0,0,1-2.615-.764,3.189,3.189,0,0,1-1.785-2.957,3.537,3.537,0,0,1,2.16-3.146,5.64,5.64,0,0,1,1.015-.388v-.412a1.5,1.5,0,0,1,3,0v.367a4.766,4.766,0,0,1,1.7.791,1.5,1.5,0,0,1-1.8,2.4,2.707,2.707,0,0,0-2.572-.075c-.33.165-.5.359-.5.465,0,.179,0,.207.2.313a7.118,7.118,0,0,0,1.751.461,8.995,8.995,0,0,1,2.615.764,3.189,3.189,0,0,1,1.785,2.957A3.539,3.539,0,0,1,255.5,289.381Z" transform="translate(-189.021 -244.828)" fill="#7c45d9"/>
    <path id="Path_6776" data-name="Path 6776" d="M92.5,171.5h26.973a1.5,1.5,0,0,0,1.5-1.5v-1.5a1.5,1.5,0,0,0-1.5-1.5H92.5a1.5,1.5,0,0,0-1.5,1.5V170A1.5,1.5,0,0,0,92.5,171.5Z" transform="translate(-54.006 -150.317)" fill="#7c45d9"/>
    <path id="Path_6777" data-name="Path 6777" d="M61,468.5V470a1.5,1.5,0,0,0,1.5,1.5H82.072a15.016,15.016,0,0,1-4-4.5H62.5A1.5,1.5,0,0,0,61,468.5Z" transform="translate(-27.003 -420.347)" fill="#7c45d9"/>
    <path id="Path_6778" data-name="Path 6778" d="M61,318.5V320a1.5,1.5,0,0,0,1.5,1.5H76.288a14.792,14.792,0,0,1,1.782-4.5H62.5A1.5,1.5,0,0,0,61,318.5Z" transform="translate(-27.003 -285.332)" fill="#7c45d9"/>
    <path id="Path_6779" data-name="Path 6779" d="M32.5,396.5H49.747a14.776,14.776,0,0,1-.765-4.5H32.5a1.5,1.5,0,0,0-1.5,1.5V395A1.5,1.5,0,0,0,32.5,396.5Z" transform="translate(0 -352.84)" fill="#7c45d9"/>
    <path id="Path_6780" data-name="Path 6780" d="M32.5,246.5H53.293A14.927,14.927,0,0,1,63.967,242H32.5a1.5,1.5,0,0,0-1.5,1.5V245A1.5,1.5,0,0,0,32.5,246.5Z" transform="translate(0 -217.825)" fill="#7c45d9"/>
  </g>
</svg>
