<svg xmlns="http://www.w3.org/2000/svg" width="37.314" height="37.314" viewBox="0 0 37.314 37.314">
  <g id="startup" transform="translate(0)">
    <g id="Startup_1_" transform="translate(0 0)">
      <g id="Group_6254" data-name="Group 6254" transform="translate(9.361 0)">
        <circle id="Ellipse_372" data-name="Ellipse 372" cx="2.186" cy="2.186" r="2.186" transform="translate(12.249 11.332)" fill="#7c45d9"/>
        <path id="Path_6655" data-name="Path 6655" d="M349.569,1.285A31.5,31.5,0,0,1,360.351.061a1.094,1.094,0,0,1,.995.995,31.506,31.506,0,0,1-1.224,10.782Z" transform="translate(-333.453 0)" fill="#7c45d9"/>
        <path id="Path_6656" data-name="Path 6656" d="M142.285,28.85a17.579,17.579,0,0,0-5.591,3.686,23.873,23.873,0,0,0-5.779,9c-.713,1.819-1.575,4.432-2.4,6.648a1.094,1.094,0,0,0,.251,1.156l5.04,5.04a1.094,1.094,0,0,0,1.156.251c2.217-.828,4.934-1.731,6.648-2.4a23.908,23.908,0,0,0,9-5.779,17.577,17.577,0,0,0,3.686-5.591Zm-2.5,8.324a4.373,4.373,0,1,1,0,6.184A4.377,4.377,0,0,1,139.787,37.174Z" transform="translate(-128.444 -26.747)" fill="#7c45d9"/>
      </g>
      <path id="Path_6657" data-name="Path 6657" d="M7.564,323.377a5.439,5.439,0,0,0-3.094,1.544c-1.853,1.853-4.209,9.59-4.452,10.91a1.095,1.095,0,0,0,1.274,1.274c1.32-.242,9.058-2.6,10.91-4.452a5.439,5.439,0,0,0,1.544-3.094Z" transform="translate(0 -299.809)" fill="#7c45d9"/>
    </g>
    <path id="Path_6658" data-name="Path 6658" d="M320.838,327.549l-2.1,8.477a1.1,1.1,0,0,1-1.991.319l-3.118-4.976A27.4,27.4,0,0,0,320.838,327.549Z" transform="translate(-290.77 -303.677)" fill="#7c45d9"/>
    <path id="Path_6659" data-name="Path 6659" d="M57.778,101.62l8.475-2.114a27.592,27.592,0,0,0-3.831,7.205l-4.959-3.1a1.093,1.093,0,0,1,.316-1.987Z" transform="translate(-52.799 -92.254)" fill="#7c45d9"/>
  </g>
</svg>
