<svg xmlns="http://www.w3.org/2000/svg" width="30.677" height="30.677" viewBox="0 0 30.677 30.677">
  <g id="Startup_1_" transform="translate(0 0)">
    <g id="Group_6254" data-name="Group 6254" transform="translate(7.696 0)">
      <circle id="Ellipse_372" data-name="Ellipse 372" cx="1.797" cy="1.797" r="1.797" transform="translate(10.07 9.316)" fill="#21bf79"/>
      <path id="Path_6655" data-name="Path 6655" d="M349.569,1.056A25.9,25.9,0,0,1,358.433.05a.9.9,0,0,1,.818.818,25.9,25.9,0,0,1-1.006,8.864Z" transform="translate(-336.32 0)" fill="#21bf79"/>
      <path id="Path_6656" data-name="Path 6656" d="M139.823,28.85a14.452,14.452,0,0,0-4.6,3.03,19.627,19.627,0,0,0-4.751,7.4c-.587,1.5-1.295,3.644-1.975,5.466a.9.9,0,0,0,.207.95l4.143,4.143a.9.9,0,0,0,.95.207c1.823-.681,4.057-1.423,5.466-1.975a19.656,19.656,0,0,0,7.4-4.751,14.451,14.451,0,0,0,3.03-4.6Zm-2.054,6.843a3.595,3.595,0,1,1,0,5.084A3.6,3.6,0,0,1,137.769,35.693Z" transform="translate(-128.444 -27.121)" fill="#21bf79"/>
    </g>
    <path id="Path_6657" data-name="Path 6657" d="M6.218,323.377a4.472,4.472,0,0,0-2.544,1.269c-1.523,1.523-3.461,7.884-3.66,8.97a.9.9,0,0,0,1.048,1.048c1.085-.2,7.447-2.137,8.97-3.66a4.472,4.472,0,0,0,1.27-2.544Z" transform="translate(0 -304.002)" fill="#21bf79"/>
  </g>
</svg>
